<?xml version="1.0"?>
<svg xmlns="http://www.w3.org/2000/svg" xmlns:xlink="http://www.w3.org/1999/xlink">
  <defs>
    <style xmlns="http://www.w3.org/2000/svg">
      svg g { display: none }
      svg g:target { display: inline }
    </style>
  </defs>
  <g xmlns="http://www.w3.org/2000/svg" viewBox="0 0 20 20" id="Arrow_Down-BackgroundButtonTertiaryDefaultTiny">
    <path fill="#DF2027" fill-rule="nonzero" d="M15.82 7.1L10 12.92 4.18 7.1l-.99.99L10 14.9l6.81-6.81z"/>
  </g>
  <g xmlns="http://www.w3.org/2000/svg" viewBox="0 0 20 20" id="Arrow_Down-BackgroundButtonTertiaryDefaultTinyHover">
    <path fill="#B61E24" fill-rule="nonzero" d="M15.82 7.1L10 12.92 4.18 7.1l-.99.99L10 14.9l6.81-6.81z"/>
  </g>
  <g xmlns="http://www.w3.org/2000/svg" viewBox="0 0 20 20" id="Arrow_Down-IconButtonAlt">
    <path fill="#FFF" fill-rule="nonzero" d="M15.82 7.1L10 12.92 4.18 7.1l-.99.99L10 14.9l6.81-6.81z"/>
  </g>
  <g xmlns="http://www.w3.org/2000/svg" viewBox="0 0 20 20" id="Arrow_Down-IconDefault">
    <path fill="#0A132F" fill-rule="nonzero" d="M15.82 7.1L10 12.92 4.18 7.1l-.99.99L10 14.9l6.81-6.81z"/>
  </g>
  <g xmlns="http://www.w3.org/2000/svg" viewBox="0 0 20 20" id="Arrow_Down-IconDisabled">
    <path fill="#AAA" fill-rule="nonzero" d="M15.82 7.1L10 12.92 4.18 7.1l-.99.99L10 14.9l6.81-6.81z"/>
  </g>
  <g xmlns="http://www.w3.org/2000/svg" viewBox="0 0 20 20" id="Arrow_Down-IconMenu">
    <path fill="#A8A8A8" fill-rule="nonzero" d="M15.82 7.1L10 12.92 4.18 7.1l-.99.99L10 14.9l6.81-6.81z"/>
  </g>
  <g xmlns="http://www.w3.org/2000/svg" viewBox="0 0 20 20" id="Arrow_Down-IconPrimary">
    <path fill="#223E99" fill-rule="nonzero" d="M15.82 7.1L10 12.92 4.18 7.1l-.99.99L10 14.9l6.81-6.81z"/>
  </g>
  <g xmlns="http://www.w3.org/2000/svg" viewBox="0 0 20 20" id="Arrow_Down-IconQuaternary">
    <path fill="#69737B" fill-rule="nonzero" d="M15.82 7.1L10 12.92 4.18 7.1l-.99.99L10 14.9l6.81-6.81z"/>
  </g>
  <g xmlns="http://www.w3.org/2000/svg" viewBox="0 0 20 20" id="Arrow_Down-IconSecondary">
    <path fill="#233E99" fill-rule="nonzero" d="M15.82 7.1L10 12.92 4.18 7.1l-.99.99L10 14.9l6.81-6.81z"/>
  </g>
  <g xmlns="http://www.w3.org/2000/svg" viewBox="0 0 20 20" id="Arrow_Down-IconTertiary">
    <path fill="#FFF" fill-rule="nonzero" d="M15.82 7.1L10 12.92 4.18 7.1l-.99.99L10 14.9l6.81-6.81z"/>
  </g>
  <g xmlns="http://www.w3.org/2000/svg" viewBox="0 0 20 20" id="Arrow_Left-BackgroundButtonTertiaryDefaultTiny">
    <path fill="#DF2027" fill-rule="nonzero" d="M11.574 3.861L5.436 10l6.138 6.139.99-.99L7.415 10l5.15-5.149z"/>
  </g>
  <g xmlns="http://www.w3.org/2000/svg" viewBox="0 0 20 20" id="Arrow_Left-BackgroundButtonTertiaryDefaultTinyHover">
    <path fill="#B61E24" fill-rule="nonzero" d="M11.574 3.861L5.436 10l6.138 6.139.99-.99L7.415 10l5.15-5.149z"/>
  </g>
  <g xmlns="http://www.w3.org/2000/svg" viewBox="0 0 20 20" id="Arrow_Left-IconButtonAlt">
    <path fill="#FFF" fill-rule="nonzero" d="M11.574 3.861L5.436 10l6.138 6.139.99-.99L7.415 10l5.15-5.149z"/>
  </g>
  <g xmlns="http://www.w3.org/2000/svg" viewBox="0 0 20 20" id="Arrow_Left-IconDefault">
    <path fill="#0A132F" fill-rule="nonzero" d="M11.574 3.861L5.436 10l6.138 6.139.99-.99L7.415 10l5.15-5.149z"/>
  </g>
  <g xmlns="http://www.w3.org/2000/svg" viewBox="0 0 20 20" id="Arrow_Left-IconDisabled">
    <path fill="#AAA" fill-rule="nonzero" d="M11.574 3.861L5.436 10l6.138 6.139.99-.99L7.415 10l5.15-5.149z"/>
  </g>
  <g xmlns="http://www.w3.org/2000/svg" viewBox="0 0 20 20" id="Arrow_Left-IconMenu">
    <path fill="#A8A8A8" fill-rule="nonzero" d="M11.574 3.861L5.436 10l6.138 6.139.99-.99L7.415 10l5.15-5.149z"/>
  </g>
  <g xmlns="http://www.w3.org/2000/svg" viewBox="0 0 20 20" id="Arrow_Left-IconPrimary">
    <path fill="#223E99" fill-rule="nonzero" d="M11.574 3.861L5.436 10l6.138 6.139.99-.99L7.415 10l5.15-5.149z"/>
  </g>
  <g xmlns="http://www.w3.org/2000/svg" viewBox="0 0 20 20" id="Arrow_Left-IconQuaternary">
    <path fill="#69737B" fill-rule="nonzero" d="M11.574 3.861L5.436 10l6.138 6.139.99-.99L7.415 10l5.15-5.149z"/>
  </g>
  <g xmlns="http://www.w3.org/2000/svg" viewBox="0 0 20 20" id="Arrow_Left-IconSecondary">
    <path fill="#233E99" fill-rule="nonzero" d="M11.574 3.861L5.436 10l6.138 6.139.99-.99L7.415 10l5.15-5.149z"/>
  </g>
  <g xmlns="http://www.w3.org/2000/svg" viewBox="0 0 20 20" id="Arrow_Left-IconTertiary">
    <path fill="#FFF" fill-rule="nonzero" d="M11.574 3.861L5.436 10l6.138 6.139.99-.99L7.415 10l5.15-5.149z"/>
  </g>
  <g xmlns="http://www.w3.org/2000/svg" viewBox="0 0 20 20" id="Arrow_Right-BackgroundButtonTertiaryDefaultTiny">
    <path fill="#DF2027" fill-rule="nonzero" d="M8.426 3.861l-.99.99L12.584 10l-5.148 5.149.99.99L14.564 10z"/>
  </g>
  <g xmlns="http://www.w3.org/2000/svg" viewBox="0 0 20 20" id="Arrow_Right-BackgroundButtonTertiaryDefaultTinyHover">
    <path fill="#B61E24" fill-rule="nonzero" d="M8.426 3.861l-.99.99L12.584 10l-5.148 5.149.99.99L14.564 10z"/>
  </g>
  <g xmlns="http://www.w3.org/2000/svg" viewBox="0 0 20 20" id="Arrow_Right-IconButtonAlt">
    <path fill="#FFF" fill-rule="nonzero" d="M8.426 3.861l-.99.99L12.584 10l-5.148 5.149.99.99L14.564 10z"/>
  </g>
  <g xmlns="http://www.w3.org/2000/svg" viewBox="0 0 20 20" id="Arrow_Right-IconDefault">
    <path fill="#0A132F" fill-rule="nonzero" d="M8.426 3.861l-.99.99L12.584 10l-5.148 5.149.99.99L14.564 10z"/>
  </g>
  <g xmlns="http://www.w3.org/2000/svg" viewBox="0 0 20 20" id="Arrow_Right-IconDisabled">
    <path fill="#AAA" fill-rule="nonzero" d="M8.426 3.861l-.99.99L12.584 10l-5.148 5.149.99.99L14.564 10z"/>
  </g>
  <g xmlns="http://www.w3.org/2000/svg" viewBox="0 0 20 20" id="Arrow_Right-IconMenu">
    <path fill="#A8A8A8" fill-rule="nonzero" d="M8.426 3.861l-.99.99L12.584 10l-5.148 5.149.99.99L14.564 10z"/>
  </g>
  <g xmlns="http://www.w3.org/2000/svg" viewBox="0 0 20 20" id="Arrow_Right-IconPrimary">
    <path fill="#223E99" fill-rule="nonzero" d="M8.426 3.861l-.99.99L12.584 10l-5.148 5.149.99.99L14.564 10z"/>
  </g>
  <g xmlns="http://www.w3.org/2000/svg" viewBox="0 0 20 20" id="Arrow_Right-IconQuaternary">
    <path fill="#69737B" fill-rule="nonzero" d="M8.426 3.861l-.99.99L12.584 10l-5.148 5.149.99.99L14.564 10z"/>
  </g>
  <g xmlns="http://www.w3.org/2000/svg" viewBox="0 0 20 20" id="Arrow_Right-IconSecondary">
    <path fill="#233E99" fill-rule="nonzero" d="M8.426 3.861l-.99.99L12.584 10l-5.148 5.149.99.99L14.564 10z"/>
  </g>
  <g xmlns="http://www.w3.org/2000/svg" viewBox="0 0 20 20" id="Arrow_Right-IconTertiary">
    <path fill="#FFF" fill-rule="nonzero" d="M8.426 3.861l-.99.99L12.584 10l-5.148 5.149.99.99L14.564 10z"/>
  </g>
  <g xmlns="http://www.w3.org/2000/svg" viewBox="0 0 20 20" id="Arrow_Up-BackgroundButtonTertiaryDefaultTiny">
    <path fill="#DF2027" fill-rule="nonzero" d="M16.81 11.91L10 5.1l-6.81 6.81.99.99L10 7.08l5.82 5.82z"/>
  </g>
  <g xmlns="http://www.w3.org/2000/svg" viewBox="0 0 20 20" id="Arrow_Up-BackgroundButtonTertiaryDefaultTinyHover">
    <path fill="#B61E24" fill-rule="nonzero" d="M16.81 11.91L10 5.1l-6.81 6.81.99.99L10 7.08l5.82 5.82z"/>
  </g>
  <g xmlns="http://www.w3.org/2000/svg" viewBox="0 0 20 20" id="Arrow_Up-IconButtonAlt">
    <path fill="#FFF" fill-rule="nonzero" d="M16.81 11.91L10 5.1l-6.81 6.81.99.99L10 7.08l5.82 5.82z"/>
  </g>
  <g xmlns="http://www.w3.org/2000/svg" viewBox="0 0 20 20" id="Arrow_Up-IconDefault">
    <path fill="#0A132F" fill-rule="nonzero" d="M16.81 11.91L10 5.1l-6.81 6.81.99.99L10 7.08l5.82 5.82z"/>
  </g>
  <g xmlns="http://www.w3.org/2000/svg" viewBox="0 0 20 20" id="Arrow_Up-IconDisabled">
    <path fill="#AAA" fill-rule="nonzero" d="M16.81 11.91L10 5.1l-6.81 6.81.99.99L10 7.08l5.82 5.82z"/>
  </g>
  <g xmlns="http://www.w3.org/2000/svg" viewBox="0 0 20 20" id="Arrow_Up-IconMenu">
    <path fill="#A8A8A8" fill-rule="nonzero" d="M16.81 11.91L10 5.1l-6.81 6.81.99.99L10 7.08l5.82 5.82z"/>
  </g>
  <g xmlns="http://www.w3.org/2000/svg" viewBox="0 0 20 20" id="Arrow_Up-IconPrimary">
    <path fill="#223E99" fill-rule="nonzero" d="M16.81 11.91L10 5.1l-6.81 6.81.99.99L10 7.08l5.82 5.82z"/>
  </g>
  <g xmlns="http://www.w3.org/2000/svg" viewBox="0 0 20 20" id="Arrow_Up-IconQuaternary">
    <path fill="#69737B" fill-rule="nonzero" d="M16.81 11.91L10 5.1l-6.81 6.81.99.99L10 7.08l5.82 5.82z"/>
  </g>
  <g xmlns="http://www.w3.org/2000/svg" viewBox="0 0 20 20" id="Arrow_Up-IconSecondary">
    <path fill="#233E99" fill-rule="nonzero" d="M16.81 11.91L10 5.1l-6.81 6.81.99.99L10 7.08l5.82 5.82z"/>
  </g>
  <g xmlns="http://www.w3.org/2000/svg" viewBox="0 0 20 20" id="Arrow_Up-IconTertiary">
    <path fill="#FFF" fill-rule="nonzero" d="M16.81 11.91L10 5.1l-6.81 6.81.99.99L10 7.08l5.82 5.82z"/>
  </g>
  <g xmlns="http://www.w3.org/2000/svg" viewBox="0 0 20 20" id="Badge_Video-BackgroundButtonTertiaryDefaultTiny">
    <path d="M14 3v4.818L19 6h1v8h-1l-5-1.818v4.817H0V3.001h14zM4.24 7v6l5-3-5-3z" fill="#DF2027" fill-rule="nonzero"/>
  </g>
  <g xmlns="http://www.w3.org/2000/svg" viewBox="0 0 20 20" id="Badge_Video-BackgroundButtonTertiaryDefaultTinyHover">
    <path d="M14 3v4.818L19 6h1v8h-1l-5-1.818v4.817H0V3.001h14zM4.24 7v6l5-3-5-3z" fill="#B61E24" fill-rule="nonzero"/>
  </g>
  <g xmlns="http://www.w3.org/2000/svg" viewBox="0 0 20 20" id="Badge_Video-IconButtonAlt">
    <path d="M14 3v4.818L19 6h1v8h-1l-5-1.818v4.817H0V3.001h14zM4.24 7v6l5-3-5-3z" fill="#FFF" fill-rule="nonzero"/>
  </g>
  <g xmlns="http://www.w3.org/2000/svg" viewBox="0 0 20 20" id="Badge_Video-IconDefault">
    <path d="M14 3v4.818L19 6h1v8h-1l-5-1.818v4.817H0V3.001h14zM4.24 7v6l5-3-5-3z" fill="#0A132F" fill-rule="nonzero"/>
  </g>
  <g xmlns="http://www.w3.org/2000/svg" viewBox="0 0 20 20" id="Badge_Video-IconDisabled">
    <path d="M14 3v4.818L19 6h1v8h-1l-5-1.818v4.817H0V3.001h14zM4.24 7v6l5-3-5-3z" fill="#AAA" fill-rule="nonzero"/>
  </g>
  <g xmlns="http://www.w3.org/2000/svg" viewBox="0 0 20 20" id="Badge_Video-IconMenu">
    <path d="M14 3v4.818L19 6h1v8h-1l-5-1.818v4.817H0V3.001h14zM4.24 7v6l5-3-5-3z" fill="#A8A8A8" fill-rule="nonzero"/>
  </g>
  <g xmlns="http://www.w3.org/2000/svg" viewBox="0 0 20 20" id="Badge_Video-IconPrimary">
    <path d="M14 3v4.818L19 6h1v8h-1l-5-1.818v4.817H0V3.001h14zM4.24 7v6l5-3-5-3z" fill="#223E99" fill-rule="nonzero"/>
  </g>
  <g xmlns="http://www.w3.org/2000/svg" viewBox="0 0 20 20" id="Badge_Video-IconQuaternary">
    <path d="M14 3v4.818L19 6h1v8h-1l-5-1.818v4.817H0V3.001h14zM4.24 7v6l5-3-5-3z" fill="#69737B" fill-rule="nonzero"/>
  </g>
  <g xmlns="http://www.w3.org/2000/svg" viewBox="0 0 20 20" id="Badge_Video-IconSecondary">
    <path d="M14 3v4.818L19 6h1v8h-1l-5-1.818v4.817H0V3.001h14zM4.24 7v6l5-3-5-3z" fill="#233E99" fill-rule="nonzero"/>
  </g>
  <g xmlns="http://www.w3.org/2000/svg" viewBox="0 0 20 20" id="Badge_Video-IconTertiary">
    <path d="M14 3v4.818L19 6h1v8h-1l-5-1.818v4.817H0V3.001h14zM4.24 7v6l5-3-5-3z" fill="#FFF" fill-rule="nonzero"/>
  </g>
  <g xmlns="http://www.w3.org/2000/svg" viewBox="0 0 20 20" id="Comment-BackgroundButtonTertiaryDefaultTiny">
    <path d="M19.238 1.622a2.525 2.525 0 00-1.856-.761H2.598a2.502 2.502 0 00-1.836.761A2.525 2.525 0 000 3.478v9.55a2.525 2.525 0 00.762 1.855c.48.497 1.145.773 1.836.762h6.093V20l6.094-4.355h2.597A2.6 2.6 0 0020 13.028v-9.55a2.525 2.525 0 00-.762-1.856z" fill="#DF2027" fill-rule="nonzero"/>
  </g>
  <g xmlns="http://www.w3.org/2000/svg" viewBox="0 0 20 20" id="Comment-BackgroundButtonTertiaryDefaultTinyHover">
    <path d="M19.238 1.622a2.525 2.525 0 00-1.856-.761H2.598a2.502 2.502 0 00-1.836.761A2.525 2.525 0 000 3.478v9.55a2.525 2.525 0 00.762 1.855c.48.497 1.145.773 1.836.762h6.093V20l6.094-4.355h2.597A2.6 2.6 0 0020 13.028v-9.55a2.525 2.525 0 00-.762-1.856z" fill="#B61E24" fill-rule="nonzero"/>
  </g>
  <g xmlns="http://www.w3.org/2000/svg" viewBox="0 0 20 20" id="Comment-IconButtonAlt">
    <path d="M19.238 1.622a2.525 2.525 0 00-1.856-.761H2.598a2.502 2.502 0 00-1.836.761A2.525 2.525 0 000 3.478v9.55a2.525 2.525 0 00.762 1.855c.48.497 1.145.773 1.836.762h6.093V20l6.094-4.355h2.597A2.6 2.6 0 0020 13.028v-9.55a2.525 2.525 0 00-.762-1.856z" fill="#FFF" fill-rule="nonzero"/>
  </g>
  <g xmlns="http://www.w3.org/2000/svg" viewBox="0 0 20 20" id="Comment-IconDefault">
    <path d="M19.238 1.622a2.525 2.525 0 00-1.856-.761H2.598a2.502 2.502 0 00-1.836.761A2.525 2.525 0 000 3.478v9.55a2.525 2.525 0 00.762 1.855c.48.497 1.145.773 1.836.762h6.093V20l6.094-4.355h2.597A2.6 2.6 0 0020 13.028v-9.55a2.525 2.525 0 00-.762-1.856z" fill="#0A132F" fill-rule="nonzero"/>
  </g>
  <g xmlns="http://www.w3.org/2000/svg" viewBox="0 0 20 20" id="Comment-IconDisabled">
    <path d="M19.238 1.622a2.525 2.525 0 00-1.856-.761H2.598a2.502 2.502 0 00-1.836.761A2.525 2.525 0 000 3.478v9.55a2.525 2.525 0 00.762 1.855c.48.497 1.145.773 1.836.762h6.093V20l6.094-4.355h2.597A2.6 2.6 0 0020 13.028v-9.55a2.525 2.525 0 00-.762-1.856z" fill="#AAA" fill-rule="nonzero"/>
  </g>
  <g xmlns="http://www.w3.org/2000/svg" viewBox="0 0 20 20" id="Comment-IconMenu">
    <path d="M19.238 1.622a2.525 2.525 0 00-1.856-.761H2.598a2.502 2.502 0 00-1.836.761A2.525 2.525 0 000 3.478v9.55a2.525 2.525 0 00.762 1.855c.48.497 1.145.773 1.836.762h6.093V20l6.094-4.355h2.597A2.6 2.6 0 0020 13.028v-9.55a2.525 2.525 0 00-.762-1.856z" fill="#A8A8A8" fill-rule="nonzero"/>
  </g>
  <g xmlns="http://www.w3.org/2000/svg" viewBox="0 0 20 20" id="Comment-IconPrimary">
    <path d="M19.238 1.622a2.525 2.525 0 00-1.856-.761H2.598a2.502 2.502 0 00-1.836.761A2.525 2.525 0 000 3.478v9.55a2.525 2.525 0 00.762 1.855c.48.497 1.145.773 1.836.762h6.093V20l6.094-4.355h2.597A2.6 2.6 0 0020 13.028v-9.55a2.525 2.525 0 00-.762-1.856z" fill="#223E99" fill-rule="nonzero"/>
  </g>
  <g xmlns="http://www.w3.org/2000/svg" viewBox="0 0 20 20" id="Comment-IconQuaternary">
    <path d="M19.238 1.622a2.525 2.525 0 00-1.856-.761H2.598a2.502 2.502 0 00-1.836.761A2.525 2.525 0 000 3.478v9.55a2.525 2.525 0 00.762 1.855c.48.497 1.145.773 1.836.762h6.093V20l6.094-4.355h2.597A2.6 2.6 0 0020 13.028v-9.55a2.525 2.525 0 00-.762-1.856z" fill="#69737B" fill-rule="nonzero"/>
  </g>
  <g xmlns="http://www.w3.org/2000/svg" viewBox="0 0 20 20" id="Comment-IconSecondary">
    <path d="M19.238 1.622a2.525 2.525 0 00-1.856-.761H2.598a2.502 2.502 0 00-1.836.761A2.525 2.525 0 000 3.478v9.55a2.525 2.525 0 00.762 1.855c.48.497 1.145.773 1.836.762h6.093V20l6.094-4.355h2.597A2.6 2.6 0 0020 13.028v-9.55a2.525 2.525 0 00-.762-1.856z" fill="#233E99" fill-rule="nonzero"/>
  </g>
  <g xmlns="http://www.w3.org/2000/svg" viewBox="0 0 20 20" id="Comment-IconTertiary">
    <path d="M19.238 1.622a2.525 2.525 0 00-1.856-.761H2.598a2.502 2.502 0 00-1.836.761A2.525 2.525 0 000 3.478v9.55a2.525 2.525 0 00.762 1.855c.48.497 1.145.773 1.836.762h6.093V20l6.094-4.355h2.597A2.6 2.6 0 0020 13.028v-9.55a2.525 2.525 0 00-.762-1.856z" fill="#FFF" fill-rule="nonzero"/>
  </g>
  <g xmlns="http://www.w3.org/2000/svg" viewBox="0 0 20 20" id="Comment-IconRegular">
    <path d="M19.238 1.622a2.525 2.525 0 00-1.856-.761H2.598a2.502 2.502 0 00-1.836.761A2.525 2.525 0 000 3.478v9.55a2.525 2.525 0 00.762 1.855c.48.497 1.145.773 1.836.762h6.093V20l6.094-4.355h2.597A2.6 2.6 0 0020 13.028v-9.55a2.525 2.525 0 00-.762-1.856z" fill="#8B959C" fill-rule="nonzero"/>
  </g>
  <g xmlns="http://www.w3.org/2000/svg" viewBox="0 0 20 20" id="Dislike_Active-BackgroundButtonTertiaryDefaultTiny">
    <path d="M2 13.145V2.86h2.543v10.284H2zm16.312-.457c.459-.305.688-.868.688-1.688v-.896c0-.116-.011-.23-.035-.343a2.968 2.968 0 00-.087-.325L16.51 3.09a1.734 1.734 0 00-.566-.782c-.25-.201-.56-.31-.88-.308H8.062c-.452 0-.868.211-1.245.633-.377.422-.566.879-.566 1.37v7.999c0 .246.116.6.348 1.063.233.463.418.777.558.94L12.05 20l.836-.95c.105-.116.238-.275.4-.474.163-.199.245-.392.245-.58l-.488-4.851h3.397c.79 0 1.413-.153 1.872-.457z" fill="#DF2027" fill-rule="nonzero"/>
  </g>
  <g xmlns="http://www.w3.org/2000/svg" viewBox="0 0 20 20" id="Dislike_Active-BackgroundButtonTertiaryDefaultTinyHover">
    <path d="M2 13.145V2.86h2.543v10.284H2zm16.312-.457c.459-.305.688-.868.688-1.688v-.896c0-.116-.011-.23-.035-.343a2.968 2.968 0 00-.087-.325L16.51 3.09a1.734 1.734 0 00-.566-.782c-.25-.201-.56-.31-.88-.308H8.062c-.452 0-.868.211-1.245.633-.377.422-.566.879-.566 1.37v7.999c0 .246.116.6.348 1.063.233.463.418.777.558.94L12.05 20l.836-.95c.105-.116.238-.275.4-.474.163-.199.245-.392.245-.58l-.488-4.851h3.397c.79 0 1.413-.153 1.872-.457z" fill="#B61E24" fill-rule="nonzero"/>
  </g>
  <g xmlns="http://www.w3.org/2000/svg" viewBox="0 0 20 20" id="Dislike_Active-IconButtonAlt">
    <path d="M2 13.145V2.86h2.543v10.284H2zm16.312-.457c.459-.305.688-.868.688-1.688v-.896c0-.116-.011-.23-.035-.343a2.968 2.968 0 00-.087-.325L16.51 3.09a1.734 1.734 0 00-.566-.782c-.25-.201-.56-.31-.88-.308H8.062c-.452 0-.868.211-1.245.633-.377.422-.566.879-.566 1.37v7.999c0 .246.116.6.348 1.063.233.463.418.777.558.94L12.05 20l.836-.95c.105-.116.238-.275.4-.474.163-.199.245-.392.245-.58l-.488-4.851h3.397c.79 0 1.413-.153 1.872-.457z" fill="#FFF" fill-rule="nonzero"/>
  </g>
  <g xmlns="http://www.w3.org/2000/svg" viewBox="0 0 20 20" id="Dislike_Active-IconDefault">
    <path d="M2 13.145V2.86h2.543v10.284H2zm16.312-.457c.459-.305.688-.868.688-1.688v-.896c0-.116-.011-.23-.035-.343a2.968 2.968 0 00-.087-.325L16.51 3.09a1.734 1.734 0 00-.566-.782c-.25-.201-.56-.31-.88-.308H8.062c-.452 0-.868.211-1.245.633-.377.422-.566.879-.566 1.37v7.999c0 .246.116.6.348 1.063.233.463.418.777.558.94L12.05 20l.836-.95c.105-.116.238-.275.4-.474.163-.199.245-.392.245-.58l-.488-4.851h3.397c.79 0 1.413-.153 1.872-.457z" fill="#0A132F" fill-rule="nonzero"/>
  </g>
  <g xmlns="http://www.w3.org/2000/svg" viewBox="0 0 20 20" id="Dislike_Active-IconDisabled">
    <path d="M2 13.145V2.86h2.543v10.284H2zm16.312-.457c.459-.305.688-.868.688-1.688v-.896c0-.116-.011-.23-.035-.343a2.968 2.968 0 00-.087-.325L16.51 3.09a1.734 1.734 0 00-.566-.782c-.25-.201-.56-.31-.88-.308H8.062c-.452 0-.868.211-1.245.633-.377.422-.566.879-.566 1.37v7.999c0 .246.116.6.348 1.063.233.463.418.777.558.94L12.05 20l.836-.95c.105-.116.238-.275.4-.474.163-.199.245-.392.245-.58l-.488-4.851h3.397c.79 0 1.413-.153 1.872-.457z" fill="#AAA" fill-rule="nonzero"/>
  </g>
  <g xmlns="http://www.w3.org/2000/svg" viewBox="0 0 20 20" id="Dislike_Active-IconMenu">
    <path d="M2 13.145V2.86h2.543v10.284H2zm16.312-.457c.459-.305.688-.868.688-1.688v-.896c0-.116-.011-.23-.035-.343a2.968 2.968 0 00-.087-.325L16.51 3.09a1.734 1.734 0 00-.566-.782c-.25-.201-.56-.31-.88-.308H8.062c-.452 0-.868.211-1.245.633-.377.422-.566.879-.566 1.37v7.999c0 .246.116.6.348 1.063.233.463.418.777.558.94L12.05 20l.836-.95c.105-.116.238-.275.4-.474.163-.199.245-.392.245-.58l-.488-4.851h3.397c.79 0 1.413-.153 1.872-.457z" fill="#A8A8A8" fill-rule="nonzero"/>
  </g>
  <g xmlns="http://www.w3.org/2000/svg" viewBox="0 0 20 20" id="Dislike_Active-IconPrimary">
    <path d="M2 13.145V2.86h2.543v10.284H2zm16.312-.457c.459-.305.688-.868.688-1.688v-.896c0-.116-.011-.23-.035-.343a2.968 2.968 0 00-.087-.325L16.51 3.09a1.734 1.734 0 00-.566-.782c-.25-.201-.56-.31-.88-.308H8.062c-.452 0-.868.211-1.245.633-.377.422-.566.879-.566 1.37v7.999c0 .246.116.6.348 1.063.233.463.418.777.558.94L12.05 20l.836-.95c.105-.116.238-.275.4-.474.163-.199.245-.392.245-.58l-.488-4.851h3.397c.79 0 1.413-.153 1.872-.457z" fill="#223E99" fill-rule="nonzero"/>
  </g>
  <g xmlns="http://www.w3.org/2000/svg" viewBox="0 0 20 20" id="Dislike_Active-IconQuaternary">
    <path d="M2 13.145V2.86h2.543v10.284H2zm16.312-.457c.459-.305.688-.868.688-1.688v-.896c0-.116-.011-.23-.035-.343a2.968 2.968 0 00-.087-.325L16.51 3.09a1.734 1.734 0 00-.566-.782c-.25-.201-.56-.31-.88-.308H8.062c-.452 0-.868.211-1.245.633-.377.422-.566.879-.566 1.37v7.999c0 .246.116.6.348 1.063.233.463.418.777.558.94L12.05 20l.836-.95c.105-.116.238-.275.4-.474.163-.199.245-.392.245-.58l-.488-4.851h3.397c.79 0 1.413-.153 1.872-.457z" fill="#69737B" fill-rule="nonzero"/>
  </g>
  <g xmlns="http://www.w3.org/2000/svg" viewBox="0 0 20 20" id="Dislike_Active-IconSecondary">
    <path d="M2 13.145V2.86h2.543v10.284H2zm16.312-.457c.459-.305.688-.868.688-1.688v-.896c0-.116-.011-.23-.035-.343a2.968 2.968 0 00-.087-.325L16.51 3.09a1.734 1.734 0 00-.566-.782c-.25-.201-.56-.31-.88-.308H8.062c-.452 0-.868.211-1.245.633-.377.422-.566.879-.566 1.37v7.999c0 .246.116.6.348 1.063.233.463.418.777.558.94L12.05 20l.836-.95c.105-.116.238-.275.4-.474.163-.199.245-.392.245-.58l-.488-4.851h3.397c.79 0 1.413-.153 1.872-.457z" fill="#233E99" fill-rule="nonzero"/>
  </g>
  <g xmlns="http://www.w3.org/2000/svg" viewBox="0 0 20 20" id="Dislike_Active-IconTertiary">
    <path d="M2 13.145V2.86h2.543v10.284H2zm16.312-.457c.459-.305.688-.868.688-1.688v-.896c0-.116-.011-.23-.035-.343a2.968 2.968 0 00-.087-.325L16.51 3.09a1.734 1.734 0 00-.566-.782c-.25-.201-.56-.31-.88-.308H8.062c-.452 0-.868.211-1.245.633-.377.422-.566.879-.566 1.37v7.999c0 .246.116.6.348 1.063.233.463.418.777.558.94L12.05 20l.836-.95c.105-.116.238-.275.4-.474.163-.199.245-.392.245-.58l-.488-4.851h3.397c.79 0 1.413-.153 1.872-.457z" fill="#FFF" fill-rule="nonzero"/>
  </g>
  <g xmlns="http://www.w3.org/2000/svg" viewBox="0 0 20 20" id="Dislike_Inactive-BackgroundButtonTertiaryDefaultTiny">
    <path d="M2 13.145V2.86h2.543v10.284H2zm16.312-.457c.459-.305.688-.868.688-1.688v-.896c0-.116-.011-.23-.035-.343a2.968 2.968 0 00-.087-.325L16.51 3.09a1.734 1.734 0 00-.566-.782c-.25-.201-.56-.31-.88-.308H8.062c-.452 0-.868.211-1.245.633-.377.422-.566.879-.566 1.37v7.999c0 .246.116.6.348 1.063.233.463.418.777.558.94L12.05 20l.836-.95c.105-.116.238-.275.4-.474.163-.199.245-.392.245-.58l-.488-4.851h3.397c.79 0 1.413-.153 1.872-.457zm-1.019-2.584V11a2.133 2.133 0 01-.017.316 3.623 3.623 0 01-.235.062c-.122.03-.323.044-.601.044h-5.26l.54 5.467-3.258-3.99a3.872 3.872 0 01-.279-.475 2.85 2.85 0 01-.226-.527V4.004c0-.035.023-.085.07-.15a.547.547 0 01.122-.131h6.775l2.352 6.275.017.062v.044z" fill="#DF2027" fill-rule="nonzero"/>
  </g>
  <g xmlns="http://www.w3.org/2000/svg" viewBox="0 0 20 20" id="Dislike_Inactive-BackgroundButtonTertiaryDefaultTinyHover">
    <path d="M2 13.145V2.86h2.543v10.284H2zm16.312-.457c.459-.305.688-.868.688-1.688v-.896c0-.116-.011-.23-.035-.343a2.968 2.968 0 00-.087-.325L16.51 3.09a1.734 1.734 0 00-.566-.782c-.25-.201-.56-.31-.88-.308H8.062c-.452 0-.868.211-1.245.633-.377.422-.566.879-.566 1.37v7.999c0 .246.116.6.348 1.063.233.463.418.777.558.94L12.05 20l.836-.95c.105-.116.238-.275.4-.474.163-.199.245-.392.245-.58l-.488-4.851h3.397c.79 0 1.413-.153 1.872-.457zm-1.019-2.584V11a2.133 2.133 0 01-.017.316 3.623 3.623 0 01-.235.062c-.122.03-.323.044-.601.044h-5.26l.54 5.467-3.258-3.99a3.872 3.872 0 01-.279-.475 2.85 2.85 0 01-.226-.527V4.004c0-.035.023-.085.07-.15a.547.547 0 01.122-.131h6.775l2.352 6.275.017.062v.044z" fill="#B61E24" fill-rule="nonzero"/>
  </g>
  <g xmlns="http://www.w3.org/2000/svg" viewBox="0 0 20 20" id="Dislike_Inactive-IconButtonAlt">
    <path d="M2 13.145V2.86h2.543v10.284H2zm16.312-.457c.459-.305.688-.868.688-1.688v-.896c0-.116-.011-.23-.035-.343a2.968 2.968 0 00-.087-.325L16.51 3.09a1.734 1.734 0 00-.566-.782c-.25-.201-.56-.31-.88-.308H8.062c-.452 0-.868.211-1.245.633-.377.422-.566.879-.566 1.37v7.999c0 .246.116.6.348 1.063.233.463.418.777.558.94L12.05 20l.836-.95c.105-.116.238-.275.4-.474.163-.199.245-.392.245-.58l-.488-4.851h3.397c.79 0 1.413-.153 1.872-.457zm-1.019-2.584V11a2.133 2.133 0 01-.017.316 3.623 3.623 0 01-.235.062c-.122.03-.323.044-.601.044h-5.26l.54 5.467-3.258-3.99a3.872 3.872 0 01-.279-.475 2.85 2.85 0 01-.226-.527V4.004c0-.035.023-.085.07-.15a.547.547 0 01.122-.131h6.775l2.352 6.275.017.062v.044z" fill="#FFF" fill-rule="nonzero"/>
  </g>
  <g xmlns="http://www.w3.org/2000/svg" viewBox="0 0 20 20" id="Dislike_Inactive-IconDefault">
    <path d="M2 13.145V2.86h2.543v10.284H2zm16.312-.457c.459-.305.688-.868.688-1.688v-.896c0-.116-.011-.23-.035-.343a2.968 2.968 0 00-.087-.325L16.51 3.09a1.734 1.734 0 00-.566-.782c-.25-.201-.56-.31-.88-.308H8.062c-.452 0-.868.211-1.245.633-.377.422-.566.879-.566 1.37v7.999c0 .246.116.6.348 1.063.233.463.418.777.558.94L12.05 20l.836-.95c.105-.116.238-.275.4-.474.163-.199.245-.392.245-.58l-.488-4.851h3.397c.79 0 1.413-.153 1.872-.457zm-1.019-2.584V11a2.133 2.133 0 01-.017.316 3.623 3.623 0 01-.235.062c-.122.03-.323.044-.601.044h-5.26l.54 5.467-3.258-3.99a3.872 3.872 0 01-.279-.475 2.85 2.85 0 01-.226-.527V4.004c0-.035.023-.085.07-.15a.547.547 0 01.122-.131h6.775l2.352 6.275.017.062v.044z" fill="#0A132F" fill-rule="nonzero"/>
  </g>
  <g xmlns="http://www.w3.org/2000/svg" viewBox="0 0 20 20" id="Dislike_Inactive-IconDisabled">
    <path d="M2 13.145V2.86h2.543v10.284H2zm16.312-.457c.459-.305.688-.868.688-1.688v-.896c0-.116-.011-.23-.035-.343a2.968 2.968 0 00-.087-.325L16.51 3.09a1.734 1.734 0 00-.566-.782c-.25-.201-.56-.31-.88-.308H8.062c-.452 0-.868.211-1.245.633-.377.422-.566.879-.566 1.37v7.999c0 .246.116.6.348 1.063.233.463.418.777.558.94L12.05 20l.836-.95c.105-.116.238-.275.4-.474.163-.199.245-.392.245-.58l-.488-4.851h3.397c.79 0 1.413-.153 1.872-.457zm-1.019-2.584V11a2.133 2.133 0 01-.017.316 3.623 3.623 0 01-.235.062c-.122.03-.323.044-.601.044h-5.26l.54 5.467-3.258-3.99a3.872 3.872 0 01-.279-.475 2.85 2.85 0 01-.226-.527V4.004c0-.035.023-.085.07-.15a.547.547 0 01.122-.131h6.775l2.352 6.275.017.062v.044z" fill="#AAA" fill-rule="nonzero"/>
  </g>
  <g xmlns="http://www.w3.org/2000/svg" viewBox="0 0 20 20" id="Dislike_Inactive-IconMenu">
    <path d="M2 13.145V2.86h2.543v10.284H2zm16.312-.457c.459-.305.688-.868.688-1.688v-.896c0-.116-.011-.23-.035-.343a2.968 2.968 0 00-.087-.325L16.51 3.09a1.734 1.734 0 00-.566-.782c-.25-.201-.56-.31-.88-.308H8.062c-.452 0-.868.211-1.245.633-.377.422-.566.879-.566 1.37v7.999c0 .246.116.6.348 1.063.233.463.418.777.558.94L12.05 20l.836-.95c.105-.116.238-.275.4-.474.163-.199.245-.392.245-.58l-.488-4.851h3.397c.79 0 1.413-.153 1.872-.457zm-1.019-2.584V11a2.133 2.133 0 01-.017.316 3.623 3.623 0 01-.235.062c-.122.03-.323.044-.601.044h-5.26l.54 5.467-3.258-3.99a3.872 3.872 0 01-.279-.475 2.85 2.85 0 01-.226-.527V4.004c0-.035.023-.085.07-.15a.547.547 0 01.122-.131h6.775l2.352 6.275.017.062v.044z" fill="#A8A8A8" fill-rule="nonzero"/>
  </g>
  <g xmlns="http://www.w3.org/2000/svg" viewBox="0 0 20 20" id="Dislike_Inactive-IconPrimary">
    <path d="M2 13.145V2.86h2.543v10.284H2zm16.312-.457c.459-.305.688-.868.688-1.688v-.896c0-.116-.011-.23-.035-.343a2.968 2.968 0 00-.087-.325L16.51 3.09a1.734 1.734 0 00-.566-.782c-.25-.201-.56-.31-.88-.308H8.062c-.452 0-.868.211-1.245.633-.377.422-.566.879-.566 1.37v7.999c0 .246.116.6.348 1.063.233.463.418.777.558.94L12.05 20l.836-.95c.105-.116.238-.275.4-.474.163-.199.245-.392.245-.58l-.488-4.851h3.397c.79 0 1.413-.153 1.872-.457zm-1.019-2.584V11a2.133 2.133 0 01-.017.316 3.623 3.623 0 01-.235.062c-.122.03-.323.044-.601.044h-5.26l.54 5.467-3.258-3.99a3.872 3.872 0 01-.279-.475 2.85 2.85 0 01-.226-.527V4.004c0-.035.023-.085.07-.15a.547.547 0 01.122-.131h6.775l2.352 6.275.017.062v.044z" fill="#223E99" fill-rule="nonzero"/>
  </g>
  <g xmlns="http://www.w3.org/2000/svg" viewBox="0 0 20 20" id="Dislike_Inactive-IconQuaternary">
    <path d="M2 13.145V2.86h2.543v10.284H2zm16.312-.457c.459-.305.688-.868.688-1.688v-.896c0-.116-.011-.23-.035-.343a2.968 2.968 0 00-.087-.325L16.51 3.09a1.734 1.734 0 00-.566-.782c-.25-.201-.56-.31-.88-.308H8.062c-.452 0-.868.211-1.245.633-.377.422-.566.879-.566 1.37v7.999c0 .246.116.6.348 1.063.233.463.418.777.558.94L12.05 20l.836-.95c.105-.116.238-.275.4-.474.163-.199.245-.392.245-.58l-.488-4.851h3.397c.79 0 1.413-.153 1.872-.457zm-1.019-2.584V11a2.133 2.133 0 01-.017.316 3.623 3.623 0 01-.235.062c-.122.03-.323.044-.601.044h-5.26l.54 5.467-3.258-3.99a3.872 3.872 0 01-.279-.475 2.85 2.85 0 01-.226-.527V4.004c0-.035.023-.085.07-.15a.547.547 0 01.122-.131h6.775l2.352 6.275.017.062v.044z" fill="#69737B" fill-rule="nonzero"/>
  </g>
  <g xmlns="http://www.w3.org/2000/svg" viewBox="0 0 20 20" id="Dislike_Inactive-IconSecondary">
    <path d="M2 13.145V2.86h2.543v10.284H2zm16.312-.457c.459-.305.688-.868.688-1.688v-.896c0-.116-.011-.23-.035-.343a2.968 2.968 0 00-.087-.325L16.51 3.09a1.734 1.734 0 00-.566-.782c-.25-.201-.56-.31-.88-.308H8.062c-.452 0-.868.211-1.245.633-.377.422-.566.879-.566 1.37v7.999c0 .246.116.6.348 1.063.233.463.418.777.558.94L12.05 20l.836-.95c.105-.116.238-.275.4-.474.163-.199.245-.392.245-.58l-.488-4.851h3.397c.79 0 1.413-.153 1.872-.457zm-1.019-2.584V11a2.133 2.133 0 01-.017.316 3.623 3.623 0 01-.235.062c-.122.03-.323.044-.601.044h-5.26l.54 5.467-3.258-3.99a3.872 3.872 0 01-.279-.475 2.85 2.85 0 01-.226-.527V4.004c0-.035.023-.085.07-.15a.547.547 0 01.122-.131h6.775l2.352 6.275.017.062v.044z" fill="#233E99" fill-rule="nonzero"/>
  </g>
  <g xmlns="http://www.w3.org/2000/svg" viewBox="0 0 20 20" id="Dislike_Inactive-IconTertiary">
    <path d="M2 13.145V2.86h2.543v10.284H2zm16.312-.457c.459-.305.688-.868.688-1.688v-.896c0-.116-.011-.23-.035-.343a2.968 2.968 0 00-.087-.325L16.51 3.09a1.734 1.734 0 00-.566-.782c-.25-.201-.56-.31-.88-.308H8.062c-.452 0-.868.211-1.245.633-.377.422-.566.879-.566 1.37v7.999c0 .246.116.6.348 1.063.233.463.418.777.558.94L12.05 20l.836-.95c.105-.116.238-.275.4-.474.163-.199.245-.392.245-.58l-.488-4.851h3.397c.79 0 1.413-.153 1.872-.457zm-1.019-2.584V11a2.133 2.133 0 01-.017.316 3.623 3.623 0 01-.235.062c-.122.03-.323.044-.601.044h-5.26l.54 5.467-3.258-3.99a3.872 3.872 0 01-.279-.475 2.85 2.85 0 01-.226-.527V4.004c0-.035.023-.085.07-.15a.547.547 0 01.122-.131h6.775l2.352 6.275.017.062v.044z" fill="#FFF" fill-rule="nonzero"/>
  </g>
  <g xmlns="http://www.w3.org/2000/svg" viewBox="0 0 20 20" id="Facebook-BackgroundButtonTertiaryDefaultTiny">
    <path d="M20 10.061c0-5.523-4.477-10-10-10s-10 4.477-10 10c0 4.991 3.657 9.128 8.438 9.878v-6.988h-2.54V10.06h2.539V7.858c0-2.506 1.493-3.891 3.777-3.891 1.094 0 2.238.195 2.238.195v2.461h-1.261c-1.242 0-1.63.771-1.63 1.562v1.876h2.773l-.443 2.891h-2.33v6.988C16.343 19.189 20 15.052 20 10.061z" fill="#DF2027" fill-rule="nonzero"/>
  </g>
  <g xmlns="http://www.w3.org/2000/svg" viewBox="0 0 20 20" id="Facebook-BackgroundButtonTertiaryDefaultTinyHover">
    <path d="M20 10.061c0-5.523-4.477-10-10-10s-10 4.477-10 10c0 4.991 3.657 9.128 8.438 9.878v-6.988h-2.54V10.06h2.539V7.858c0-2.506 1.493-3.891 3.777-3.891 1.094 0 2.238.195 2.238.195v2.461h-1.261c-1.242 0-1.63.771-1.63 1.562v1.876h2.773l-.443 2.891h-2.33v6.988C16.343 19.189 20 15.052 20 10.061z" fill="#B61E24" fill-rule="nonzero"/>
  </g>
  <g xmlns="http://www.w3.org/2000/svg" viewBox="0 0 20 20" id="Facebook-IconButtonAlt">
    <path d="M20 10.061c0-5.523-4.477-10-10-10s-10 4.477-10 10c0 4.991 3.657 9.128 8.438 9.878v-6.988h-2.54V10.06h2.539V7.858c0-2.506 1.493-3.891 3.777-3.891 1.094 0 2.238.195 2.238.195v2.461h-1.261c-1.242 0-1.63.771-1.63 1.562v1.876h2.773l-.443 2.891h-2.33v6.988C16.343 19.189 20 15.052 20 10.061z" fill="#FFF" fill-rule="nonzero"/>
  </g>
  <g xmlns="http://www.w3.org/2000/svg" viewBox="0 0 20 20" id="Facebook-IconDefault">
    <path d="M20 10.061c0-5.523-4.477-10-10-10s-10 4.477-10 10c0 4.991 3.657 9.128 8.438 9.878v-6.988h-2.54V10.06h2.539V7.858c0-2.506 1.493-3.891 3.777-3.891 1.094 0 2.238.195 2.238.195v2.461h-1.261c-1.242 0-1.63.771-1.63 1.562v1.876h2.773l-.443 2.891h-2.33v6.988C16.343 19.189 20 15.052 20 10.061z" fill="#0A132F" fill-rule="nonzero"/>
  </g>
  <g xmlns="http://www.w3.org/2000/svg" viewBox="0 0 20 20" id="Facebook-IconDisabled">
    <path d="M20 10.061c0-5.523-4.477-10-10-10s-10 4.477-10 10c0 4.991 3.657 9.128 8.438 9.878v-6.988h-2.54V10.06h2.539V7.858c0-2.506 1.493-3.891 3.777-3.891 1.094 0 2.238.195 2.238.195v2.461h-1.261c-1.242 0-1.63.771-1.63 1.562v1.876h2.773l-.443 2.891h-2.33v6.988C16.343 19.189 20 15.052 20 10.061z" fill="#AAA" fill-rule="nonzero"/>
  </g>
  <g xmlns="http://www.w3.org/2000/svg" viewBox="0 0 20 20" id="Facebook-IconMenu">
    <path d="M20 10.061c0-5.523-4.477-10-10-10s-10 4.477-10 10c0 4.991 3.657 9.128 8.438 9.878v-6.988h-2.54V10.06h2.539V7.858c0-2.506 1.493-3.891 3.777-3.891 1.094 0 2.238.195 2.238.195v2.461h-1.261c-1.242 0-1.63.771-1.63 1.562v1.876h2.773l-.443 2.891h-2.33v6.988C16.343 19.189 20 15.052 20 10.061z" fill="#A8A8A8" fill-rule="nonzero"/>
  </g>
  <g xmlns="http://www.w3.org/2000/svg" viewBox="0 0 20 20" id="Facebook-IconPrimary">
    <path d="M20 10.061c0-5.523-4.477-10-10-10s-10 4.477-10 10c0 4.991 3.657 9.128 8.438 9.878v-6.988h-2.54V10.06h2.539V7.858c0-2.506 1.493-3.891 3.777-3.891 1.094 0 2.238.195 2.238.195v2.461h-1.261c-1.242 0-1.63.771-1.63 1.562v1.876h2.773l-.443 2.891h-2.33v6.988C16.343 19.189 20 15.052 20 10.061z" fill="#223E99" fill-rule="nonzero"/>
  </g>
  <g xmlns="http://www.w3.org/2000/svg" viewBox="0 0 20 20" id="Facebook-IconQuaternary">
    <path d="M20 10.061c0-5.523-4.477-10-10-10s-10 4.477-10 10c0 4.991 3.657 9.128 8.438 9.878v-6.988h-2.54V10.06h2.539V7.858c0-2.506 1.493-3.891 3.777-3.891 1.094 0 2.238.195 2.238.195v2.461h-1.261c-1.242 0-1.63.771-1.63 1.562v1.876h2.773l-.443 2.891h-2.33v6.988C16.343 19.189 20 15.052 20 10.061z" fill="#69737B" fill-rule="nonzero"/>
  </g>
  <g xmlns="http://www.w3.org/2000/svg" viewBox="0 0 20 20" id="Facebook-IconSecondary">
    <path d="M20 10.061c0-5.523-4.477-10-10-10s-10 4.477-10 10c0 4.991 3.657 9.128 8.438 9.878v-6.988h-2.54V10.06h2.539V7.858c0-2.506 1.493-3.891 3.777-3.891 1.094 0 2.238.195 2.238.195v2.461h-1.261c-1.242 0-1.63.771-1.63 1.562v1.876h2.773l-.443 2.891h-2.33v6.988C16.343 19.189 20 15.052 20 10.061z" fill="#233E99" fill-rule="nonzero"/>
  </g>
  <g xmlns="http://www.w3.org/2000/svg" viewBox="0 0 20 20" id="Facebook-IconTertiary">
    <path d="M20 10.061c0-5.523-4.477-10-10-10s-10 4.477-10 10c0 4.991 3.657 9.128 8.438 9.878v-6.988h-2.54V10.06h2.539V7.858c0-2.506 1.493-3.891 3.777-3.891 1.094 0 2.238.195 2.238.195v2.461h-1.261c-1.242 0-1.63.771-1.63 1.562v1.876h2.773l-.443 2.891h-2.33v6.988C16.343 19.189 20 15.052 20 10.061z" fill="#FFF" fill-rule="nonzero"/>
  </g>
  <g xmlns="http://www.w3.org/2000/svg" viewBox="0 0 20 20" id="Hyperlink-BackgroundButtonTertiaryDefaultTiny">
    <path d="M7.997 14.83l1.407 1.409 6.834-6.834-1.407-1.408 1.414-1.414 2.822 2.822-9.662 9.662-2.822-2.822 1.414-1.414zm8.225-12.467l1.414 1.414-5.455 5.455-1.414-1.414 5.455-5.455zm-8.404 8.404l1.414 1.414-5.455 5.455-1.414-1.414 5.455-5.455zM10.595.933l2.822 2.822-1.414 1.414-1.409-1.408-6.834 6.834 1.41 1.408-1.415 1.414-2.822-2.822L10.595.933z" fill="#DF2027" fill-rule="nonzero"/>
  </g>
  <g xmlns="http://www.w3.org/2000/svg" viewBox="0 0 20 20" id="Hyperlink-BackgroundButtonTertiaryDefaultTinyHover">
    <path d="M7.997 14.83l1.407 1.409 6.834-6.834-1.407-1.408 1.414-1.414 2.822 2.822-9.662 9.662-2.822-2.822 1.414-1.414zm8.225-12.467l1.414 1.414-5.455 5.455-1.414-1.414 5.455-5.455zm-8.404 8.404l1.414 1.414-5.455 5.455-1.414-1.414 5.455-5.455zM10.595.933l2.822 2.822-1.414 1.414-1.409-1.408-6.834 6.834 1.41 1.408-1.415 1.414-2.822-2.822L10.595.933z" fill="#B61E24" fill-rule="nonzero"/>
  </g>
  <g xmlns="http://www.w3.org/2000/svg" viewBox="0 0 20 20" id="Hyperlink-IconButtonAlt">
    <path d="M7.997 14.83l1.407 1.409 6.834-6.834-1.407-1.408 1.414-1.414 2.822 2.822-9.662 9.662-2.822-2.822 1.414-1.414zm8.225-12.467l1.414 1.414-5.455 5.455-1.414-1.414 5.455-5.455zm-8.404 8.404l1.414 1.414-5.455 5.455-1.414-1.414 5.455-5.455zM10.595.933l2.822 2.822-1.414 1.414-1.409-1.408-6.834 6.834 1.41 1.408-1.415 1.414-2.822-2.822L10.595.933z" fill="#FFF" fill-rule="nonzero"/>
  </g>
  <g xmlns="http://www.w3.org/2000/svg" viewBox="0 0 20 20" id="Hyperlink-IconDefault">
    <path d="M7.997 14.83l1.407 1.409 6.834-6.834-1.407-1.408 1.414-1.414 2.822 2.822-9.662 9.662-2.822-2.822 1.414-1.414zm8.225-12.467l1.414 1.414-5.455 5.455-1.414-1.414 5.455-5.455zm-8.404 8.404l1.414 1.414-5.455 5.455-1.414-1.414 5.455-5.455zM10.595.933l2.822 2.822-1.414 1.414-1.409-1.408-6.834 6.834 1.41 1.408-1.415 1.414-2.822-2.822L10.595.933z" fill="#0A132F" fill-rule="nonzero"/>
  </g>
  <g xmlns="http://www.w3.org/2000/svg" viewBox="0 0 20 20" id="Hyperlink-IconDisabled">
    <path d="M7.997 14.83l1.407 1.409 6.834-6.834-1.407-1.408 1.414-1.414 2.822 2.822-9.662 9.662-2.822-2.822 1.414-1.414zm8.225-12.467l1.414 1.414-5.455 5.455-1.414-1.414 5.455-5.455zm-8.404 8.404l1.414 1.414-5.455 5.455-1.414-1.414 5.455-5.455zM10.595.933l2.822 2.822-1.414 1.414-1.409-1.408-6.834 6.834 1.41 1.408-1.415 1.414-2.822-2.822L10.595.933z" fill="#AAA" fill-rule="nonzero"/>
  </g>
  <g xmlns="http://www.w3.org/2000/svg" viewBox="0 0 20 20" id="Hyperlink-IconMenu">
    <path d="M7.997 14.83l1.407 1.409 6.834-6.834-1.407-1.408 1.414-1.414 2.822 2.822-9.662 9.662-2.822-2.822 1.414-1.414zm8.225-12.467l1.414 1.414-5.455 5.455-1.414-1.414 5.455-5.455zm-8.404 8.404l1.414 1.414-5.455 5.455-1.414-1.414 5.455-5.455zM10.595.933l2.822 2.822-1.414 1.414-1.409-1.408-6.834 6.834 1.41 1.408-1.415 1.414-2.822-2.822L10.595.933z" fill="#A8A8A8" fill-rule="nonzero"/>
  </g>
  <g xmlns="http://www.w3.org/2000/svg" viewBox="0 0 20 20" id="Hyperlink-IconPrimary">
    <path d="M7.997 14.83l1.407 1.409 6.834-6.834-1.407-1.408 1.414-1.414 2.822 2.822-9.662 9.662-2.822-2.822 1.414-1.414zm8.225-12.467l1.414 1.414-5.455 5.455-1.414-1.414 5.455-5.455zm-8.404 8.404l1.414 1.414-5.455 5.455-1.414-1.414 5.455-5.455zM10.595.933l2.822 2.822-1.414 1.414-1.409-1.408-6.834 6.834 1.41 1.408-1.415 1.414-2.822-2.822L10.595.933z" fill="#223E99" fill-rule="nonzero"/>
  </g>
  <g xmlns="http://www.w3.org/2000/svg" viewBox="0 0 20 20" id="Hyperlink-IconQuaternary">
    <path d="M7.997 14.83l1.407 1.409 6.834-6.834-1.407-1.408 1.414-1.414 2.822 2.822-9.662 9.662-2.822-2.822 1.414-1.414zm8.225-12.467l1.414 1.414-5.455 5.455-1.414-1.414 5.455-5.455zm-8.404 8.404l1.414 1.414-5.455 5.455-1.414-1.414 5.455-5.455zM10.595.933l2.822 2.822-1.414 1.414-1.409-1.408-6.834 6.834 1.41 1.408-1.415 1.414-2.822-2.822L10.595.933z" fill="#69737B" fill-rule="nonzero"/>
  </g>
  <g xmlns="http://www.w3.org/2000/svg" viewBox="0 0 20 20" id="Hyperlink-IconSecondary">
    <path d="M7.997 14.83l1.407 1.409 6.834-6.834-1.407-1.408 1.414-1.414 2.822 2.822-9.662 9.662-2.822-2.822 1.414-1.414zm8.225-12.467l1.414 1.414-5.455 5.455-1.414-1.414 5.455-5.455zm-8.404 8.404l1.414 1.414-5.455 5.455-1.414-1.414 5.455-5.455zM10.595.933l2.822 2.822-1.414 1.414-1.409-1.408-6.834 6.834 1.41 1.408-1.415 1.414-2.822-2.822L10.595.933z" fill="#233E99" fill-rule="nonzero"/>
  </g>
  <g xmlns="http://www.w3.org/2000/svg" viewBox="0 0 20 20" id="Hyperlink-IconTertiary">
    <path d="M7.997 14.83l1.407 1.409 6.834-6.834-1.407-1.408 1.414-1.414 2.822 2.822-9.662 9.662-2.822-2.822 1.414-1.414zm8.225-12.467l1.414 1.414-5.455 5.455-1.414-1.414 5.455-5.455zm-8.404 8.404l1.414 1.414-5.455 5.455-1.414-1.414 5.455-5.455zM10.595.933l2.822 2.822-1.414 1.414-1.409-1.408-6.834 6.834 1.41 1.408-1.415 1.414-2.822-2.822L10.595.933z" fill="#FFF" fill-rule="nonzero"/>
  </g>
  <g xmlns="http://www.w3.org/2000/svg" viewBox="0 0 20 20" id="Like_Active-BackgroundButtonTertiaryDefaultTiny">
    <path d="M1 7.236v10.855h2.693V7.236H1zm17.272.483c.485.321.728.915.728 1.78v.947c0 .122-.012.243-.037.362-.024.116-.055.23-.092.343l-2.508 6.699a1.83 1.83 0 01-.6.825 1.473 1.473 0 01-.931.325H7.418c-.48 0-.919-.223-1.319-.668-.4-.445-.6-.928-.6-1.447V8.442c0-.26.124-.634.37-1.122.246-.489.442-.82.59-.993L11.64 0l.886 1.002c.11.124.252.29.424.5.172.211.258.415.258.613l-.516 5.121h3.596c.836 0 1.497.161 1.983.483z" fill="#DF2027" fill-rule="nonzero"/>
  </g>
  <g xmlns="http://www.w3.org/2000/svg" viewBox="0 0 20 20" id="Like_Active-BackgroundButtonTertiaryDefaultTinyHover">
    <path d="M1 7.236v10.855h2.693V7.236H1zm17.272.483c.485.321.728.915.728 1.78v.947c0 .122-.012.243-.037.362-.024.116-.055.23-.092.343l-2.508 6.699a1.83 1.83 0 01-.6.825 1.473 1.473 0 01-.931.325H7.418c-.48 0-.919-.223-1.319-.668-.4-.445-.6-.928-.6-1.447V8.442c0-.26.124-.634.37-1.122.246-.489.442-.82.59-.993L11.64 0l.886 1.002c.11.124.252.29.424.5.172.211.258.415.258.613l-.516 5.121h3.596c.836 0 1.497.161 1.983.483z" fill="#B61E24" fill-rule="nonzero"/>
  </g>
  <g xmlns="http://www.w3.org/2000/svg" viewBox="0 0 20 20" id="Like_Active-IconButtonAlt">
    <path d="M1 7.236v10.855h2.693V7.236H1zm17.272.483c.485.321.728.915.728 1.78v.947c0 .122-.012.243-.037.362-.024.116-.055.23-.092.343l-2.508 6.699a1.83 1.83 0 01-.6.825 1.473 1.473 0 01-.931.325H7.418c-.48 0-.919-.223-1.319-.668-.4-.445-.6-.928-.6-1.447V8.442c0-.26.124-.634.37-1.122.246-.489.442-.82.59-.993L11.64 0l.886 1.002c.11.124.252.29.424.5.172.211.258.415.258.613l-.516 5.121h3.596c.836 0 1.497.161 1.983.483z" fill="#FFF" fill-rule="nonzero"/>
  </g>
  <g xmlns="http://www.w3.org/2000/svg" viewBox="0 0 20 20" id="Like_Active-IconDefault">
    <path d="M1 7.236v10.855h2.693V7.236H1zm17.272.483c.485.321.728.915.728 1.78v.947c0 .122-.012.243-.037.362-.024.116-.055.23-.092.343l-2.508 6.699a1.83 1.83 0 01-.6.825 1.473 1.473 0 01-.931.325H7.418c-.48 0-.919-.223-1.319-.668-.4-.445-.6-.928-.6-1.447V8.442c0-.26.124-.634.37-1.122.246-.489.442-.82.59-.993L11.64 0l.886 1.002c.11.124.252.29.424.5.172.211.258.415.258.613l-.516 5.121h3.596c.836 0 1.497.161 1.983.483z" fill="#0A132F" fill-rule="nonzero"/>
  </g>
  <g xmlns="http://www.w3.org/2000/svg" viewBox="0 0 20 20" id="Like_Active-IconDisabled">
    <path d="M1 7.236v10.855h2.693V7.236H1zm17.272.483c.485.321.728.915.728 1.78v.947c0 .122-.012.243-.037.362-.024.116-.055.23-.092.343l-2.508 6.699a1.83 1.83 0 01-.6.825 1.473 1.473 0 01-.931.325H7.418c-.48 0-.919-.223-1.319-.668-.4-.445-.6-.928-.6-1.447V8.442c0-.26.124-.634.37-1.122.246-.489.442-.82.59-.993L11.64 0l.886 1.002c.11.124.252.29.424.5.172.211.258.415.258.613l-.516 5.121h3.596c.836 0 1.497.161 1.983.483z" fill="#AAA" fill-rule="nonzero"/>
  </g>
  <g xmlns="http://www.w3.org/2000/svg" viewBox="0 0 20 20" id="Like_Active-IconMenu">
    <path d="M1 7.236v10.855h2.693V7.236H1zm17.272.483c.485.321.728.915.728 1.78v.947c0 .122-.012.243-.037.362-.024.116-.055.23-.092.343l-2.508 6.699a1.83 1.83 0 01-.6.825 1.473 1.473 0 01-.931.325H7.418c-.48 0-.919-.223-1.319-.668-.4-.445-.6-.928-.6-1.447V8.442c0-.26.124-.634.37-1.122.246-.489.442-.82.59-.993L11.64 0l.886 1.002c.11.124.252.29.424.5.172.211.258.415.258.613l-.516 5.121h3.596c.836 0 1.497.161 1.983.483z" fill="#A8A8A8" fill-rule="nonzero"/>
  </g>
  <g xmlns="http://www.w3.org/2000/svg" viewBox="0 0 20 20" id="Like_Active-IconPrimary">
    <path d="M1 7.236v10.855h2.693V7.236H1zm17.272.483c.485.321.728.915.728 1.78v.947c0 .122-.012.243-.037.362-.024.116-.055.23-.092.343l-2.508 6.699a1.83 1.83 0 01-.6.825 1.473 1.473 0 01-.931.325H7.418c-.48 0-.919-.223-1.319-.668-.4-.445-.6-.928-.6-1.447V8.442c0-.26.124-.634.37-1.122.246-.489.442-.82.59-.993L11.64 0l.886 1.002c.11.124.252.29.424.5.172.211.258.415.258.613l-.516 5.121h3.596c.836 0 1.497.161 1.983.483z" fill="#223E99" fill-rule="nonzero"/>
  </g>
  <g xmlns="http://www.w3.org/2000/svg" viewBox="0 0 20 20" id="Like_Active-IconQuaternary">
    <path d="M1 7.236v10.855h2.693V7.236H1zm17.272.483c.485.321.728.915.728 1.78v.947c0 .122-.012.243-.037.362-.024.116-.055.23-.092.343l-2.508 6.699a1.83 1.83 0 01-.6.825 1.473 1.473 0 01-.931.325H7.418c-.48 0-.919-.223-1.319-.668-.4-.445-.6-.928-.6-1.447V8.442c0-.26.124-.634.37-1.122.246-.489.442-.82.59-.993L11.64 0l.886 1.002c.11.124.252.29.424.5.172.211.258.415.258.613l-.516 5.121h3.596c.836 0 1.497.161 1.983.483z" fill="#69737B" fill-rule="nonzero"/>
  </g>
  <g xmlns="http://www.w3.org/2000/svg" viewBox="0 0 20 20" id="Like_Active-IconSecondary">
    <path d="M1 7.236v10.855h2.693V7.236H1zm17.272.483c.485.321.728.915.728 1.78v.947c0 .122-.012.243-.037.362-.024.116-.055.23-.092.343l-2.508 6.699a1.83 1.83 0 01-.6.825 1.473 1.473 0 01-.931.325H7.418c-.48 0-.919-.223-1.319-.668-.4-.445-.6-.928-.6-1.447V8.442c0-.26.124-.634.37-1.122.246-.489.442-.82.59-.993L11.64 0l.886 1.002c.11.124.252.29.424.5.172.211.258.415.258.613l-.516 5.121h3.596c.836 0 1.497.161 1.983.483z" fill="#233E99" fill-rule="nonzero"/>
  </g>
  <g xmlns="http://www.w3.org/2000/svg" viewBox="0 0 20 20" id="Like_Active-IconTertiary">
    <path d="M1 7.236v10.855h2.693V7.236H1zm17.272.483c.485.321.728.915.728 1.78v.947c0 .122-.012.243-.037.362-.024.116-.055.23-.092.343l-2.508 6.699a1.83 1.83 0 01-.6.825 1.473 1.473 0 01-.931.325H7.418c-.48 0-.919-.223-1.319-.668-.4-.445-.6-.928-.6-1.447V8.442c0-.26.124-.634.37-1.122.246-.489.442-.82.59-.993L11.64 0l.886 1.002c.11.124.252.29.424.5.172.211.258.415.258.613l-.516 5.121h3.596c.836 0 1.497.161 1.983.483z" fill="#FFF" fill-rule="nonzero"/>
  </g>
  <g xmlns="http://www.w3.org/2000/svg" viewBox="0 0 20 20" id="Like_Inactive-BackgroundButtonTertiaryDefaultTiny">
    <path d="M1 7.236v10.855h2.693V7.236H1zm17.272.483c.485.321.728.915.728 1.78v.947c0 .122-.012.243-.037.362-.024.116-.055.23-.092.343l-2.508 6.699a1.83 1.83 0 01-.6.825 1.473 1.473 0 01-.931.325H7.418c-.48 0-.919-.223-1.319-.668-.4-.445-.6-.928-.6-1.447V8.442c0-.26.124-.634.37-1.122.246-.489.442-.82.59-.993L11.64 0l.886 1.002c.11.124.252.29.424.5.172.211.258.415.258.613l-.516 5.121h3.596c.836 0 1.497.161 1.983.483zm-1.08 2.727V9.5a2.245 2.245 0 00-.018-.334 3.843 3.843 0 00-.249-.065c-.129-.03-.341-.046-.636-.046h-5.57l.572-5.77-3.449 4.211a4.087 4.087 0 00-.295.501c-.123.235-.203.42-.24.557v8.33c0 .038.025.09.074.158.05.069.092.115.13.14h7.173l2.49-6.624.019-.065v-.047z" fill="#DF2027" fill-rule="nonzero"/>
  </g>
  <g xmlns="http://www.w3.org/2000/svg" viewBox="0 0 20 20" id="Like_Inactive-BackgroundButtonTertiaryDefaultTinyHover">
    <path d="M1 7.236v10.855h2.693V7.236H1zm17.272.483c.485.321.728.915.728 1.78v.947c0 .122-.012.243-.037.362-.024.116-.055.23-.092.343l-2.508 6.699a1.83 1.83 0 01-.6.825 1.473 1.473 0 01-.931.325H7.418c-.48 0-.919-.223-1.319-.668-.4-.445-.6-.928-.6-1.447V8.442c0-.26.124-.634.37-1.122.246-.489.442-.82.59-.993L11.64 0l.886 1.002c.11.124.252.29.424.5.172.211.258.415.258.613l-.516 5.121h3.596c.836 0 1.497.161 1.983.483zm-1.08 2.727V9.5a2.245 2.245 0 00-.018-.334 3.843 3.843 0 00-.249-.065c-.129-.03-.341-.046-.636-.046h-5.57l.572-5.77-3.449 4.211a4.087 4.087 0 00-.295.501c-.123.235-.203.42-.24.557v8.33c0 .038.025.09.074.158.05.069.092.115.13.14h7.173l2.49-6.624.019-.065v-.047z" fill="#B61E24" fill-rule="nonzero"/>
  </g>
  <g xmlns="http://www.w3.org/2000/svg" viewBox="0 0 20 20" id="Like_Inactive-IconButtonAlt">
    <path d="M1 7.236v10.855h2.693V7.236H1zm17.272.483c.485.321.728.915.728 1.78v.947c0 .122-.012.243-.037.362-.024.116-.055.23-.092.343l-2.508 6.699a1.83 1.83 0 01-.6.825 1.473 1.473 0 01-.931.325H7.418c-.48 0-.919-.223-1.319-.668-.4-.445-.6-.928-.6-1.447V8.442c0-.26.124-.634.37-1.122.246-.489.442-.82.59-.993L11.64 0l.886 1.002c.11.124.252.29.424.5.172.211.258.415.258.613l-.516 5.121h3.596c.836 0 1.497.161 1.983.483zm-1.08 2.727V9.5a2.245 2.245 0 00-.018-.334 3.843 3.843 0 00-.249-.065c-.129-.03-.341-.046-.636-.046h-5.57l.572-5.77-3.449 4.211a4.087 4.087 0 00-.295.501c-.123.235-.203.42-.24.557v8.33c0 .038.025.09.074.158.05.069.092.115.13.14h7.173l2.49-6.624.019-.065v-.047z" fill="#FFF" fill-rule="nonzero"/>
  </g>
  <g xmlns="http://www.w3.org/2000/svg" viewBox="0 0 20 20" id="Like_Inactive-IconDefault">
    <path d="M1 7.236v10.855h2.693V7.236H1zm17.272.483c.485.321.728.915.728 1.78v.947c0 .122-.012.243-.037.362-.024.116-.055.23-.092.343l-2.508 6.699a1.83 1.83 0 01-.6.825 1.473 1.473 0 01-.931.325H7.418c-.48 0-.919-.223-1.319-.668-.4-.445-.6-.928-.6-1.447V8.442c0-.26.124-.634.37-1.122.246-.489.442-.82.59-.993L11.64 0l.886 1.002c.11.124.252.29.424.5.172.211.258.415.258.613l-.516 5.121h3.596c.836 0 1.497.161 1.983.483zm-1.08 2.727V9.5a2.245 2.245 0 00-.018-.334 3.843 3.843 0 00-.249-.065c-.129-.03-.341-.046-.636-.046h-5.57l.572-5.77-3.449 4.211a4.087 4.087 0 00-.295.501c-.123.235-.203.42-.24.557v8.33c0 .038.025.09.074.158.05.069.092.115.13.14h7.173l2.49-6.624.019-.065v-.047z" fill="#0A132F" fill-rule="nonzero"/>
  </g>
  <g xmlns="http://www.w3.org/2000/svg" viewBox="0 0 20 20" id="Like_Inactive-IconDisabled">
    <path d="M1 7.236v10.855h2.693V7.236H1zm17.272.483c.485.321.728.915.728 1.78v.947c0 .122-.012.243-.037.362-.024.116-.055.23-.092.343l-2.508 6.699a1.83 1.83 0 01-.6.825 1.473 1.473 0 01-.931.325H7.418c-.48 0-.919-.223-1.319-.668-.4-.445-.6-.928-.6-1.447V8.442c0-.26.124-.634.37-1.122.246-.489.442-.82.59-.993L11.64 0l.886 1.002c.11.124.252.29.424.5.172.211.258.415.258.613l-.516 5.121h3.596c.836 0 1.497.161 1.983.483zm-1.08 2.727V9.5a2.245 2.245 0 00-.018-.334 3.843 3.843 0 00-.249-.065c-.129-.03-.341-.046-.636-.046h-5.57l.572-5.77-3.449 4.211a4.087 4.087 0 00-.295.501c-.123.235-.203.42-.24.557v8.33c0 .038.025.09.074.158.05.069.092.115.13.14h7.173l2.49-6.624.019-.065v-.047z" fill="#AAA" fill-rule="nonzero"/>
  </g>
  <g xmlns="http://www.w3.org/2000/svg" viewBox="0 0 20 20" id="Like_Inactive-IconMenu">
    <path d="M1 7.236v10.855h2.693V7.236H1zm17.272.483c.485.321.728.915.728 1.78v.947c0 .122-.012.243-.037.362-.024.116-.055.23-.092.343l-2.508 6.699a1.83 1.83 0 01-.6.825 1.473 1.473 0 01-.931.325H7.418c-.48 0-.919-.223-1.319-.668-.4-.445-.6-.928-.6-1.447V8.442c0-.26.124-.634.37-1.122.246-.489.442-.82.59-.993L11.64 0l.886 1.002c.11.124.252.29.424.5.172.211.258.415.258.613l-.516 5.121h3.596c.836 0 1.497.161 1.983.483zm-1.08 2.727V9.5a2.245 2.245 0 00-.018-.334 3.843 3.843 0 00-.249-.065c-.129-.03-.341-.046-.636-.046h-5.57l.572-5.77-3.449 4.211a4.087 4.087 0 00-.295.501c-.123.235-.203.42-.24.557v8.33c0 .038.025.09.074.158.05.069.092.115.13.14h7.173l2.49-6.624.019-.065v-.047z" fill="#A8A8A8" fill-rule="nonzero"/>
  </g>
  <g xmlns="http://www.w3.org/2000/svg" viewBox="0 0 20 20" id="Like_Inactive-IconPrimary">
    <path d="M1 7.236v10.855h2.693V7.236H1zm17.272.483c.485.321.728.915.728 1.78v.947c0 .122-.012.243-.037.362-.024.116-.055.23-.092.343l-2.508 6.699a1.83 1.83 0 01-.6.825 1.473 1.473 0 01-.931.325H7.418c-.48 0-.919-.223-1.319-.668-.4-.445-.6-.928-.6-1.447V8.442c0-.26.124-.634.37-1.122.246-.489.442-.82.59-.993L11.64 0l.886 1.002c.11.124.252.29.424.5.172.211.258.415.258.613l-.516 5.121h3.596c.836 0 1.497.161 1.983.483zm-1.08 2.727V9.5a2.245 2.245 0 00-.018-.334 3.843 3.843 0 00-.249-.065c-.129-.03-.341-.046-.636-.046h-5.57l.572-5.77-3.449 4.211a4.087 4.087 0 00-.295.501c-.123.235-.203.42-.24.557v8.33c0 .038.025.09.074.158.05.069.092.115.13.14h7.173l2.49-6.624.019-.065v-.047z" fill="#223E99" fill-rule="nonzero"/>
  </g>
  <g xmlns="http://www.w3.org/2000/svg" viewBox="0 0 20 20" id="Like_Inactive-IconQuaternary">
    <path d="M1 7.236v10.855h2.693V7.236H1zm17.272.483c.485.321.728.915.728 1.78v.947c0 .122-.012.243-.037.362-.024.116-.055.23-.092.343l-2.508 6.699a1.83 1.83 0 01-.6.825 1.473 1.473 0 01-.931.325H7.418c-.48 0-.919-.223-1.319-.668-.4-.445-.6-.928-.6-1.447V8.442c0-.26.124-.634.37-1.122.246-.489.442-.82.59-.993L11.64 0l.886 1.002c.11.124.252.29.424.5.172.211.258.415.258.613l-.516 5.121h3.596c.836 0 1.497.161 1.983.483zm-1.08 2.727V9.5a2.245 2.245 0 00-.018-.334 3.843 3.843 0 00-.249-.065c-.129-.03-.341-.046-.636-.046h-5.57l.572-5.77-3.449 4.211a4.087 4.087 0 00-.295.501c-.123.235-.203.42-.24.557v8.33c0 .038.025.09.074.158.05.069.092.115.13.14h7.173l2.49-6.624.019-.065v-.047z" fill="#69737B" fill-rule="nonzero"/>
  </g>
  <g xmlns="http://www.w3.org/2000/svg" viewBox="0 0 20 20" id="Like_Inactive-IconSecondary">
    <path d="M1 7.236v10.855h2.693V7.236H1zm17.272.483c.485.321.728.915.728 1.78v.947c0 .122-.012.243-.037.362-.024.116-.055.23-.092.343l-2.508 6.699a1.83 1.83 0 01-.6.825 1.473 1.473 0 01-.931.325H7.418c-.48 0-.919-.223-1.319-.668-.4-.445-.6-.928-.6-1.447V8.442c0-.26.124-.634.37-1.122.246-.489.442-.82.59-.993L11.64 0l.886 1.002c.11.124.252.29.424.5.172.211.258.415.258.613l-.516 5.121h3.596c.836 0 1.497.161 1.983.483zm-1.08 2.727V9.5a2.245 2.245 0 00-.018-.334 3.843 3.843 0 00-.249-.065c-.129-.03-.341-.046-.636-.046h-5.57l.572-5.77-3.449 4.211a4.087 4.087 0 00-.295.501c-.123.235-.203.42-.24.557v8.33c0 .038.025.09.074.158.05.069.092.115.13.14h7.173l2.49-6.624.019-.065v-.047z" fill="#233E99" fill-rule="nonzero"/>
  </g>
  <g xmlns="http://www.w3.org/2000/svg" viewBox="0 0 20 20" id="Like_Inactive-IconTertiary">
    <path d="M1 7.236v10.855h2.693V7.236H1zm17.272.483c.485.321.728.915.728 1.78v.947c0 .122-.012.243-.037.362-.024.116-.055.23-.092.343l-2.508 6.699a1.83 1.83 0 01-.6.825 1.473 1.473 0 01-.931.325H7.418c-.48 0-.919-.223-1.319-.668-.4-.445-.6-.928-.6-1.447V8.442c0-.26.124-.634.37-1.122.246-.489.442-.82.59-.993L11.64 0l.886 1.002c.11.124.252.29.424.5.172.211.258.415.258.613l-.516 5.121h3.596c.836 0 1.497.161 1.983.483zm-1.08 2.727V9.5a2.245 2.245 0 00-.018-.334 3.843 3.843 0 00-.249-.065c-.129-.03-.341-.046-.636-.046h-5.57l.572-5.77-3.449 4.211a4.087 4.087 0 00-.295.501c-.123.235-.203.42-.24.557v8.33c0 .038.025.09.074.158.05.069.092.115.13.14h7.173l2.49-6.624.019-.065v-.047z" fill="#FFF" fill-rule="nonzero"/>
  </g>
  <g xmlns="http://www.w3.org/2000/svg" viewBox="0 0 20 20" id="Mail-BackgroundButtonTertiaryDefaultTiny">
    <path d="M20 2.75v14.767H0V2.75h20zm-3.3 3.058l-6.701 5.024L3.3 5.808l-.6.8 7.3 5.474 7.3-5.474-.6-.8z" fill="#DF2027" fill-rule="nonzero"/>
  </g>
  <g xmlns="http://www.w3.org/2000/svg" viewBox="0 0 20 20" id="Mail-BackgroundButtonTertiaryDefaultTinyHover">
    <path d="M20 2.75v14.767H0V2.75h20zm-3.3 3.058l-6.701 5.024L3.3 5.808l-.6.8 7.3 5.474 7.3-5.474-.6-.8z" fill="#B61E24" fill-rule="nonzero"/>
  </g>
  <g xmlns="http://www.w3.org/2000/svg" viewBox="0 0 20 20" id="Mail-IconButtonAlt">
    <path d="M20 2.75v14.767H0V2.75h20zm-3.3 3.058l-6.701 5.024L3.3 5.808l-.6.8 7.3 5.474 7.3-5.474-.6-.8z" fill="#FFF" fill-rule="nonzero"/>
  </g>
  <g xmlns="http://www.w3.org/2000/svg" viewBox="0 0 20 20" id="Mail-IconDefault">
    <path d="M20 2.75v14.767H0V2.75h20zm-3.3 3.058l-6.701 5.024L3.3 5.808l-.6.8 7.3 5.474 7.3-5.474-.6-.8z" fill="#0A132F" fill-rule="nonzero"/>
  </g>
  <g xmlns="http://www.w3.org/2000/svg" viewBox="0 0 20 20" id="Mail-IconDisabled">
    <path d="M20 2.75v14.767H0V2.75h20zm-3.3 3.058l-6.701 5.024L3.3 5.808l-.6.8 7.3 5.474 7.3-5.474-.6-.8z" fill="#AAA" fill-rule="nonzero"/>
  </g>
  <g xmlns="http://www.w3.org/2000/svg" viewBox="0 0 20 20" id="Mail-IconMenu">
    <path d="M20 2.75v14.767H0V2.75h20zm-3.3 3.058l-6.701 5.024L3.3 5.808l-.6.8 7.3 5.474 7.3-5.474-.6-.8z" fill="#A8A8A8" fill-rule="nonzero"/>
  </g>
  <g xmlns="http://www.w3.org/2000/svg" viewBox="0 0 20 20" id="Mail-IconPrimary">
    <path d="M20 2.75v14.767H0V2.75h20zm-3.3 3.058l-6.701 5.024L3.3 5.808l-.6.8 7.3 5.474 7.3-5.474-.6-.8z" fill="#223E99" fill-rule="nonzero"/>
  </g>
  <g xmlns="http://www.w3.org/2000/svg" viewBox="0 0 20 20" id="Mail-IconQuaternary">
    <path d="M20 2.75v14.767H0V2.75h20zm-3.3 3.058l-6.701 5.024L3.3 5.808l-.6.8 7.3 5.474 7.3-5.474-.6-.8z" fill="#69737B" fill-rule="nonzero"/>
  </g>
  <g xmlns="http://www.w3.org/2000/svg" viewBox="0 0 20 20" id="Mail-IconSecondary">
    <path d="M20 2.75v14.767H0V2.75h20zm-3.3 3.058l-6.701 5.024L3.3 5.808l-.6.8 7.3 5.474 7.3-5.474-.6-.8z" fill="#233E99" fill-rule="nonzero"/>
  </g>
  <g xmlns="http://www.w3.org/2000/svg" viewBox="0 0 20 20" id="Mail-IconTertiary">
    <path d="M20 2.75v14.767H0V2.75h20zm-3.3 3.058l-6.701 5.024L3.3 5.808l-.6.8 7.3 5.474 7.3-5.474-.6-.8z" fill="#FFF" fill-rule="nonzero"/>
  </g>
  <g xmlns="http://www.w3.org/2000/svg" viewBox="0 0 20 20" id="Play_Circle-BackgroundButtonTertiaryDefaultTiny">
    <path d="M7.988 12.988L14.004 10 7.988 7.012v5.976zM10 .996a8.78 8.78 0 013.496.703 9.312 9.312 0 012.861 1.944 9.312 9.312 0 011.944 2.86A8.78 8.78 0 0119.004 10a8.78 8.78 0 01-.703 3.496 9.312 9.312 0 01-1.944 2.861 9.312 9.312 0 01-2.86 1.944 8.78 8.78 0 01-3.497.703 8.78 8.78 0 01-3.496-.703 9.312 9.312 0 01-2.861-1.944 9.313 9.313 0 01-1.944-2.86A8.78 8.78 0 01.996 10 8.78 8.78 0 011.7 6.504a9.313 9.313 0 011.944-2.861 9.312 9.312 0 012.86-1.944A8.78 8.78 0 0110 .996zm3.887 18.223a10.277 10.277 0 003.193-2.158 10.064 10.064 0 002.139-3.174C19.739 12.676 20 11.38 20 10s-.26-2.676-.781-3.887A10.005 10.005 0 0017.08 2.92 10.006 10.006 0 0013.887.78 9.731 9.731 0 0010 0C8.62 0 7.324.26 6.113.781A10.006 10.006 0 002.92 2.92 10.006 10.006 0 00.78 6.113 9.732 9.732 0 000 10c0 1.38.26 2.676.781 3.887A10.065 10.065 0 002.92 17.06c.905.904 1.97 1.624 3.193 2.158C7.324 19.739 8.62 20 10 20s2.676-.26 3.887-.781z" fill="#DF2027" fill-rule="nonzero"/>
  </g>
  <g xmlns="http://www.w3.org/2000/svg" viewBox="0 0 20 20" id="Play_Circle-BackgroundButtonTertiaryDefaultTinyHover">
    <path d="M7.988 12.988L14.004 10 7.988 7.012v5.976zM10 .996a8.78 8.78 0 013.496.703 9.312 9.312 0 012.861 1.944 9.312 9.312 0 011.944 2.86A8.78 8.78 0 0119.004 10a8.78 8.78 0 01-.703 3.496 9.312 9.312 0 01-1.944 2.861 9.312 9.312 0 01-2.86 1.944 8.78 8.78 0 01-3.497.703 8.78 8.78 0 01-3.496-.703 9.312 9.312 0 01-2.861-1.944 9.313 9.313 0 01-1.944-2.86A8.78 8.78 0 01.996 10 8.78 8.78 0 011.7 6.504a9.313 9.313 0 011.944-2.861 9.312 9.312 0 012.86-1.944A8.78 8.78 0 0110 .996zm3.887 18.223a10.277 10.277 0 003.193-2.158 10.064 10.064 0 002.139-3.174C19.739 12.676 20 11.38 20 10s-.26-2.676-.781-3.887A10.005 10.005 0 0017.08 2.92 10.006 10.006 0 0013.887.78 9.731 9.731 0 0010 0C8.62 0 7.324.26 6.113.781A10.006 10.006 0 002.92 2.92 10.006 10.006 0 00.78 6.113 9.732 9.732 0 000 10c0 1.38.26 2.676.781 3.887A10.065 10.065 0 002.92 17.06c.905.904 1.97 1.624 3.193 2.158C7.324 19.739 8.62 20 10 20s2.676-.26 3.887-.781z" fill="#B61E24" fill-rule="nonzero"/>
  </g>
  <g xmlns="http://www.w3.org/2000/svg" viewBox="0 0 20 20" id="Play_Circle-IconButtonAlt">
    <path d="M7.988 12.988L14.004 10 7.988 7.012v5.976zM10 .996a8.78 8.78 0 013.496.703 9.312 9.312 0 012.861 1.944 9.312 9.312 0 011.944 2.86A8.78 8.78 0 0119.004 10a8.78 8.78 0 01-.703 3.496 9.312 9.312 0 01-1.944 2.861 9.312 9.312 0 01-2.86 1.944 8.78 8.78 0 01-3.497.703 8.78 8.78 0 01-3.496-.703 9.312 9.312 0 01-2.861-1.944 9.313 9.313 0 01-1.944-2.86A8.78 8.78 0 01.996 10 8.78 8.78 0 011.7 6.504a9.313 9.313 0 011.944-2.861 9.312 9.312 0 012.86-1.944A8.78 8.78 0 0110 .996zm3.887 18.223a10.277 10.277 0 003.193-2.158 10.064 10.064 0 002.139-3.174C19.739 12.676 20 11.38 20 10s-.26-2.676-.781-3.887A10.005 10.005 0 0017.08 2.92 10.006 10.006 0 0013.887.78 9.731 9.731 0 0010 0C8.62 0 7.324.26 6.113.781A10.006 10.006 0 002.92 2.92 10.006 10.006 0 00.78 6.113 9.732 9.732 0 000 10c0 1.38.26 2.676.781 3.887A10.065 10.065 0 002.92 17.06c.905.904 1.97 1.624 3.193 2.158C7.324 19.739 8.62 20 10 20s2.676-.26 3.887-.781z" fill="#FFF" fill-rule="nonzero"/>
  </g>
  <g xmlns="http://www.w3.org/2000/svg" viewBox="0 0 20 20" id="Play_Circle-IconDefault">
    <path d="M7.988 12.988L14.004 10 7.988 7.012v5.976zM10 .996a8.78 8.78 0 013.496.703 9.312 9.312 0 012.861 1.944 9.312 9.312 0 011.944 2.86A8.78 8.78 0 0119.004 10a8.78 8.78 0 01-.703 3.496 9.312 9.312 0 01-1.944 2.861 9.312 9.312 0 01-2.86 1.944 8.78 8.78 0 01-3.497.703 8.78 8.78 0 01-3.496-.703 9.312 9.312 0 01-2.861-1.944 9.313 9.313 0 01-1.944-2.86A8.78 8.78 0 01.996 10 8.78 8.78 0 011.7 6.504a9.313 9.313 0 011.944-2.861 9.312 9.312 0 012.86-1.944A8.78 8.78 0 0110 .996zm3.887 18.223a10.277 10.277 0 003.193-2.158 10.064 10.064 0 002.139-3.174C19.739 12.676 20 11.38 20 10s-.26-2.676-.781-3.887A10.005 10.005 0 0017.08 2.92 10.006 10.006 0 0013.887.78 9.731 9.731 0 0010 0C8.62 0 7.324.26 6.113.781A10.006 10.006 0 002.92 2.92 10.006 10.006 0 00.78 6.113 9.732 9.732 0 000 10c0 1.38.26 2.676.781 3.887A10.065 10.065 0 002.92 17.06c.905.904 1.97 1.624 3.193 2.158C7.324 19.739 8.62 20 10 20s2.676-.26 3.887-.781z" fill="#0A132F" fill-rule="nonzero"/>
  </g>
  <g xmlns="http://www.w3.org/2000/svg" viewBox="0 0 20 20" id="Play_Circle-IconDisabled">
    <path d="M7.988 12.988L14.004 10 7.988 7.012v5.976zM10 .996a8.78 8.78 0 013.496.703 9.312 9.312 0 012.861 1.944 9.312 9.312 0 011.944 2.86A8.78 8.78 0 0119.004 10a8.78 8.78 0 01-.703 3.496 9.312 9.312 0 01-1.944 2.861 9.312 9.312 0 01-2.86 1.944 8.78 8.78 0 01-3.497.703 8.78 8.78 0 01-3.496-.703 9.312 9.312 0 01-2.861-1.944 9.313 9.313 0 01-1.944-2.86A8.78 8.78 0 01.996 10 8.78 8.78 0 011.7 6.504a9.313 9.313 0 011.944-2.861 9.312 9.312 0 012.86-1.944A8.78 8.78 0 0110 .996zm3.887 18.223a10.277 10.277 0 003.193-2.158 10.064 10.064 0 002.139-3.174C19.739 12.676 20 11.38 20 10s-.26-2.676-.781-3.887A10.005 10.005 0 0017.08 2.92 10.006 10.006 0 0013.887.78 9.731 9.731 0 0010 0C8.62 0 7.324.26 6.113.781A10.006 10.006 0 002.92 2.92 10.006 10.006 0 00.78 6.113 9.732 9.732 0 000 10c0 1.38.26 2.676.781 3.887A10.065 10.065 0 002.92 17.06c.905.904 1.97 1.624 3.193 2.158C7.324 19.739 8.62 20 10 20s2.676-.26 3.887-.781z" fill="#AAA" fill-rule="nonzero"/>
  </g>
  <g xmlns="http://www.w3.org/2000/svg" viewBox="0 0 20 20" id="Play_Circle-IconMenu">
    <path d="M7.988 12.988L14.004 10 7.988 7.012v5.976zM10 .996a8.78 8.78 0 013.496.703 9.312 9.312 0 012.861 1.944 9.312 9.312 0 011.944 2.86A8.78 8.78 0 0119.004 10a8.78 8.78 0 01-.703 3.496 9.312 9.312 0 01-1.944 2.861 9.312 9.312 0 01-2.86 1.944 8.78 8.78 0 01-3.497.703 8.78 8.78 0 01-3.496-.703 9.312 9.312 0 01-2.861-1.944 9.313 9.313 0 01-1.944-2.86A8.78 8.78 0 01.996 10 8.78 8.78 0 011.7 6.504a9.313 9.313 0 011.944-2.861 9.312 9.312 0 012.86-1.944A8.78 8.78 0 0110 .996zm3.887 18.223a10.277 10.277 0 003.193-2.158 10.064 10.064 0 002.139-3.174C19.739 12.676 20 11.38 20 10s-.26-2.676-.781-3.887A10.005 10.005 0 0017.08 2.92 10.006 10.006 0 0013.887.78 9.731 9.731 0 0010 0C8.62 0 7.324.26 6.113.781A10.006 10.006 0 002.92 2.92 10.006 10.006 0 00.78 6.113 9.732 9.732 0 000 10c0 1.38.26 2.676.781 3.887A10.065 10.065 0 002.92 17.06c.905.904 1.97 1.624 3.193 2.158C7.324 19.739 8.62 20 10 20s2.676-.26 3.887-.781z" fill="#A8A8A8" fill-rule="nonzero"/>
  </g>
  <g xmlns="http://www.w3.org/2000/svg" viewBox="0 0 20 20" id="Play_Circle-IconPrimary">
    <path d="M7.988 12.988L14.004 10 7.988 7.012v5.976zM10 .996a8.78 8.78 0 013.496.703 9.312 9.312 0 012.861 1.944 9.312 9.312 0 011.944 2.86A8.78 8.78 0 0119.004 10a8.78 8.78 0 01-.703 3.496 9.312 9.312 0 01-1.944 2.861 9.312 9.312 0 01-2.86 1.944 8.78 8.78 0 01-3.497.703 8.78 8.78 0 01-3.496-.703 9.312 9.312 0 01-2.861-1.944 9.313 9.313 0 01-1.944-2.86A8.78 8.78 0 01.996 10 8.78 8.78 0 011.7 6.504a9.313 9.313 0 011.944-2.861 9.312 9.312 0 012.86-1.944A8.78 8.78 0 0110 .996zm3.887 18.223a10.277 10.277 0 003.193-2.158 10.064 10.064 0 002.139-3.174C19.739 12.676 20 11.38 20 10s-.26-2.676-.781-3.887A10.005 10.005 0 0017.08 2.92 10.006 10.006 0 0013.887.78 9.731 9.731 0 0010 0C8.62 0 7.324.26 6.113.781A10.006 10.006 0 002.92 2.92 10.006 10.006 0 00.78 6.113 9.732 9.732 0 000 10c0 1.38.26 2.676.781 3.887A10.065 10.065 0 002.92 17.06c.905.904 1.97 1.624 3.193 2.158C7.324 19.739 8.62 20 10 20s2.676-.26 3.887-.781z" fill="#223E99" fill-rule="nonzero"/>
  </g>
  <g xmlns="http://www.w3.org/2000/svg" viewBox="0 0 20 20" id="Play_Circle-IconQuaternary">
    <path d="M7.988 12.988L14.004 10 7.988 7.012v5.976zM10 .996a8.78 8.78 0 013.496.703 9.312 9.312 0 012.861 1.944 9.312 9.312 0 011.944 2.86A8.78 8.78 0 0119.004 10a8.78 8.78 0 01-.703 3.496 9.312 9.312 0 01-1.944 2.861 9.312 9.312 0 01-2.86 1.944 8.78 8.78 0 01-3.497.703 8.78 8.78 0 01-3.496-.703 9.312 9.312 0 01-2.861-1.944 9.313 9.313 0 01-1.944-2.86A8.78 8.78 0 01.996 10 8.78 8.78 0 011.7 6.504a9.313 9.313 0 011.944-2.861 9.312 9.312 0 012.86-1.944A8.78 8.78 0 0110 .996zm3.887 18.223a10.277 10.277 0 003.193-2.158 10.064 10.064 0 002.139-3.174C19.739 12.676 20 11.38 20 10s-.26-2.676-.781-3.887A10.005 10.005 0 0017.08 2.92 10.006 10.006 0 0013.887.78 9.731 9.731 0 0010 0C8.62 0 7.324.26 6.113.781A10.006 10.006 0 002.92 2.92 10.006 10.006 0 00.78 6.113 9.732 9.732 0 000 10c0 1.38.26 2.676.781 3.887A10.065 10.065 0 002.92 17.06c.905.904 1.97 1.624 3.193 2.158C7.324 19.739 8.62 20 10 20s2.676-.26 3.887-.781z" fill="#69737B" fill-rule="nonzero"/>
  </g>
  <g xmlns="http://www.w3.org/2000/svg" viewBox="0 0 20 20" id="Play_Circle-IconSecondary">
    <path d="M7.988 12.988L14.004 10 7.988 7.012v5.976zM10 .996a8.78 8.78 0 013.496.703 9.312 9.312 0 012.861 1.944 9.312 9.312 0 011.944 2.86A8.78 8.78 0 0119.004 10a8.78 8.78 0 01-.703 3.496 9.312 9.312 0 01-1.944 2.861 9.312 9.312 0 01-2.86 1.944 8.78 8.78 0 01-3.497.703 8.78 8.78 0 01-3.496-.703 9.312 9.312 0 01-2.861-1.944 9.313 9.313 0 01-1.944-2.86A8.78 8.78 0 01.996 10 8.78 8.78 0 011.7 6.504a9.313 9.313 0 011.944-2.861 9.312 9.312 0 012.86-1.944A8.78 8.78 0 0110 .996zm3.887 18.223a10.277 10.277 0 003.193-2.158 10.064 10.064 0 002.139-3.174C19.739 12.676 20 11.38 20 10s-.26-2.676-.781-3.887A10.005 10.005 0 0017.08 2.92 10.006 10.006 0 0013.887.78 9.731 9.731 0 0010 0C8.62 0 7.324.26 6.113.781A10.006 10.006 0 002.92 2.92 10.006 10.006 0 00.78 6.113 9.732 9.732 0 000 10c0 1.38.26 2.676.781 3.887A10.065 10.065 0 002.92 17.06c.905.904 1.97 1.624 3.193 2.158C7.324 19.739 8.62 20 10 20s2.676-.26 3.887-.781z" fill="#233E99" fill-rule="nonzero"/>
  </g>
  <g xmlns="http://www.w3.org/2000/svg" viewBox="0 0 20 20" id="Play_Circle-IconTertiary">
    <path d="M7.988 12.988L14.004 10 7.988 7.012v5.976zM10 .996a8.78 8.78 0 013.496.703 9.312 9.312 0 012.861 1.944 9.312 9.312 0 011.944 2.86A8.78 8.78 0 0119.004 10a8.78 8.78 0 01-.703 3.496 9.312 9.312 0 01-1.944 2.861 9.312 9.312 0 01-2.86 1.944 8.78 8.78 0 01-3.497.703 8.78 8.78 0 01-3.496-.703 9.312 9.312 0 01-2.861-1.944 9.313 9.313 0 01-1.944-2.86A8.78 8.78 0 01.996 10 8.78 8.78 0 011.7 6.504a9.313 9.313 0 011.944-2.861 9.312 9.312 0 012.86-1.944A8.78 8.78 0 0110 .996zm3.887 18.223a10.277 10.277 0 003.193-2.158 10.064 10.064 0 002.139-3.174C19.739 12.676 20 11.38 20 10s-.26-2.676-.781-3.887A10.005 10.005 0 0017.08 2.92 10.006 10.006 0 0013.887.78 9.731 9.731 0 0010 0C8.62 0 7.324.26 6.113.781A10.006 10.006 0 002.92 2.92 10.006 10.006 0 00.78 6.113 9.732 9.732 0 000 10c0 1.38.26 2.676.781 3.887A10.065 10.065 0 002.92 17.06c.905.904 1.97 1.624 3.193 2.158C7.324 19.739 8.62 20 10 20s2.676-.26 3.887-.781z" fill="#FFF" fill-rule="nonzero"/>
  </g>
  <g xmlns="http://www.w3.org/2000/svg" viewBox="0 0 20 20" id="Twitter-BackgroundButtonTertiaryDefaultTiny">
    <path d="M6.275 18.131c7.552 0 11.682-6.258 11.682-11.681 0-.18 0-.359-.009-.529A8.41 8.41 0 0020 3.792a8.31 8.31 0 01-2.358.647 4.103 4.103 0 001.805-2.272 8.318 8.318 0 01-2.605.996 4.087 4.087 0 00-2.997-1.294 4.106 4.106 0 00-4.104 4.104c0 .324.034.639.111.937a11.646 11.646 0 01-8.463-4.292 4.12 4.12 0 00-.553 2.06c0 1.423.724 2.683 1.831 3.414a4.024 4.024 0 01-1.858-.51v.051a4.11 4.11 0 003.295 4.028 4.082 4.082 0 01-1.856.068 4.098 4.098 0 003.831 2.852A8.256 8.256 0 010 16.274a11.432 11.432 0 006.275 1.857" fill="#DF2027" fill-rule="nonzero"/>
  </g>
  <g xmlns="http://www.w3.org/2000/svg" viewBox="0 0 20 20" id="Twitter-BackgroundButtonTertiaryDefaultTinyHover">
    <path d="M6.275 18.131c7.552 0 11.682-6.258 11.682-11.681 0-.18 0-.359-.009-.529A8.41 8.41 0 0020 3.792a8.31 8.31 0 01-2.358.647 4.103 4.103 0 001.805-2.272 8.318 8.318 0 01-2.605.996 4.087 4.087 0 00-2.997-1.294 4.106 4.106 0 00-4.104 4.104c0 .324.034.639.111.937a11.646 11.646 0 01-8.463-4.292 4.12 4.12 0 00-.553 2.06c0 1.423.724 2.683 1.831 3.414a4.024 4.024 0 01-1.858-.51v.051a4.11 4.11 0 003.295 4.028 4.082 4.082 0 01-1.856.068 4.098 4.098 0 003.831 2.852A8.256 8.256 0 010 16.274a11.432 11.432 0 006.275 1.857" fill="#B61E24" fill-rule="nonzero"/>
  </g>
  <g xmlns="http://www.w3.org/2000/svg" viewBox="0 0 20 20" id="Twitter-IconButtonAlt">
    <path d="M6.275 18.131c7.552 0 11.682-6.258 11.682-11.681 0-.18 0-.359-.009-.529A8.41 8.41 0 0020 3.792a8.31 8.31 0 01-2.358.647 4.103 4.103 0 001.805-2.272 8.318 8.318 0 01-2.605.996 4.087 4.087 0 00-2.997-1.294 4.106 4.106 0 00-4.104 4.104c0 .324.034.639.111.937a11.646 11.646 0 01-8.463-4.292 4.12 4.12 0 00-.553 2.06c0 1.423.724 2.683 1.831 3.414a4.024 4.024 0 01-1.858-.51v.051a4.11 4.11 0 003.295 4.028 4.082 4.082 0 01-1.856.068 4.098 4.098 0 003.831 2.852A8.256 8.256 0 010 16.274a11.432 11.432 0 006.275 1.857" fill="#FFF" fill-rule="nonzero"/>
  </g>
  <g xmlns="http://www.w3.org/2000/svg" viewBox="0 0 20 20" id="Twitter-IconDefault">
    <path d="M6.275 18.131c7.552 0 11.682-6.258 11.682-11.681 0-.18 0-.359-.009-.529A8.41 8.41 0 0020 3.792a8.31 8.31 0 01-2.358.647 4.103 4.103 0 001.805-2.272 8.318 8.318 0 01-2.605.996 4.087 4.087 0 00-2.997-1.294 4.106 4.106 0 00-4.104 4.104c0 .324.034.639.111.937a11.646 11.646 0 01-8.463-4.292 4.12 4.12 0 00-.553 2.06c0 1.423.724 2.683 1.831 3.414a4.024 4.024 0 01-1.858-.51v.051a4.11 4.11 0 003.295 4.028 4.082 4.082 0 01-1.856.068 4.098 4.098 0 003.831 2.852A8.256 8.256 0 010 16.274a11.432 11.432 0 006.275 1.857" fill="#0A132F" fill-rule="nonzero"/>
  </g>
  <g xmlns="http://www.w3.org/2000/svg" viewBox="0 0 20 20" id="Twitter-IconDisabled">
    <path d="M6.275 18.131c7.552 0 11.682-6.258 11.682-11.681 0-.18 0-.359-.009-.529A8.41 8.41 0 0020 3.792a8.31 8.31 0 01-2.358.647 4.103 4.103 0 001.805-2.272 8.318 8.318 0 01-2.605.996 4.087 4.087 0 00-2.997-1.294 4.106 4.106 0 00-4.104 4.104c0 .324.034.639.111.937a11.646 11.646 0 01-8.463-4.292 4.12 4.12 0 00-.553 2.06c0 1.423.724 2.683 1.831 3.414a4.024 4.024 0 01-1.858-.51v.051a4.11 4.11 0 003.295 4.028 4.082 4.082 0 01-1.856.068 4.098 4.098 0 003.831 2.852A8.256 8.256 0 010 16.274a11.432 11.432 0 006.275 1.857" fill="#AAA" fill-rule="nonzero"/>
  </g>
  <g xmlns="http://www.w3.org/2000/svg" viewBox="0 0 20 20" id="Twitter-IconMenu">
    <path d="M6.275 18.131c7.552 0 11.682-6.258 11.682-11.681 0-.18 0-.359-.009-.529A8.41 8.41 0 0020 3.792a8.31 8.31 0 01-2.358.647 4.103 4.103 0 001.805-2.272 8.318 8.318 0 01-2.605.996 4.087 4.087 0 00-2.997-1.294 4.106 4.106 0 00-4.104 4.104c0 .324.034.639.111.937a11.646 11.646 0 01-8.463-4.292 4.12 4.12 0 00-.553 2.06c0 1.423.724 2.683 1.831 3.414a4.024 4.024 0 01-1.858-.51v.051a4.11 4.11 0 003.295 4.028 4.082 4.082 0 01-1.856.068 4.098 4.098 0 003.831 2.852A8.256 8.256 0 010 16.274a11.432 11.432 0 006.275 1.857" fill="#A8A8A8" fill-rule="nonzero"/>
  </g>
  <g xmlns="http://www.w3.org/2000/svg" viewBox="0 0 20 20" id="Twitter-IconPrimary">
    <path d="M6.275 18.131c7.552 0 11.682-6.258 11.682-11.681 0-.18 0-.359-.009-.529A8.41 8.41 0 0020 3.792a8.31 8.31 0 01-2.358.647 4.103 4.103 0 001.805-2.272 8.318 8.318 0 01-2.605.996 4.087 4.087 0 00-2.997-1.294 4.106 4.106 0 00-4.104 4.104c0 .324.034.639.111.937a11.646 11.646 0 01-8.463-4.292 4.12 4.12 0 00-.553 2.06c0 1.423.724 2.683 1.831 3.414a4.024 4.024 0 01-1.858-.51v.051a4.11 4.11 0 003.295 4.028 4.082 4.082 0 01-1.856.068 4.098 4.098 0 003.831 2.852A8.256 8.256 0 010 16.274a11.432 11.432 0 006.275 1.857" fill="#223E99" fill-rule="nonzero"/>
  </g>
  <g xmlns="http://www.w3.org/2000/svg" viewBox="0 0 20 20" id="Twitter-IconQuaternary">
    <path d="M6.275 18.131c7.552 0 11.682-6.258 11.682-11.681 0-.18 0-.359-.009-.529A8.41 8.41 0 0020 3.792a8.31 8.31 0 01-2.358.647 4.103 4.103 0 001.805-2.272 8.318 8.318 0 01-2.605.996 4.087 4.087 0 00-2.997-1.294 4.106 4.106 0 00-4.104 4.104c0 .324.034.639.111.937a11.646 11.646 0 01-8.463-4.292 4.12 4.12 0 00-.553 2.06c0 1.423.724 2.683 1.831 3.414a4.024 4.024 0 01-1.858-.51v.051a4.11 4.11 0 003.295 4.028 4.082 4.082 0 01-1.856.068 4.098 4.098 0 003.831 2.852A8.256 8.256 0 010 16.274a11.432 11.432 0 006.275 1.857" fill="#69737B" fill-rule="nonzero"/>
  </g>
  <g xmlns="http://www.w3.org/2000/svg" viewBox="0 0 20 20" id="Twitter-IconSecondary">
    <path d="M6.275 18.131c7.552 0 11.682-6.258 11.682-11.681 0-.18 0-.359-.009-.529A8.41 8.41 0 0020 3.792a8.31 8.31 0 01-2.358.647 4.103 4.103 0 001.805-2.272 8.318 8.318 0 01-2.605.996 4.087 4.087 0 00-2.997-1.294 4.106 4.106 0 00-4.104 4.104c0 .324.034.639.111.937a11.646 11.646 0 01-8.463-4.292 4.12 4.12 0 00-.553 2.06c0 1.423.724 2.683 1.831 3.414a4.024 4.024 0 01-1.858-.51v.051a4.11 4.11 0 003.295 4.028 4.082 4.082 0 01-1.856.068 4.098 4.098 0 003.831 2.852A8.256 8.256 0 010 16.274a11.432 11.432 0 006.275 1.857" fill="#233E99" fill-rule="nonzero"/>
  </g>
  <g xmlns="http://www.w3.org/2000/svg" viewBox="0 0 20 20" id="Twitter-IconTertiary">
    <path d="M6.275 18.131c7.552 0 11.682-6.258 11.682-11.681 0-.18 0-.359-.009-.529A8.41 8.41 0 0020 3.792a8.31 8.31 0 01-2.358.647 4.103 4.103 0 001.805-2.272 8.318 8.318 0 01-2.605.996 4.087 4.087 0 00-2.997-1.294 4.106 4.106 0 00-4.104 4.104c0 .324.034.639.111.937a11.646 11.646 0 01-8.463-4.292 4.12 4.12 0 00-.553 2.06c0 1.423.724 2.683 1.831 3.414a4.024 4.024 0 01-1.858-.51v.051a4.11 4.11 0 003.295 4.028 4.082 4.082 0 01-1.856.068 4.098 4.098 0 003.831 2.852A8.256 8.256 0 010 16.274a11.432 11.432 0 006.275 1.857" fill="#FFF" fill-rule="nonzero"/>
  </g>
  <g xmlns="http://www.w3.org/2000/svg" viewBox="0 0 20 20" id="Close">
    <path d="M19.675.326a1.126 1.126 0 00-1.584 0l-8.079 8.13L1.934.325a1.113 1.113 0 00-1.571 0 1.126 1.126 0 000 1.583l8.09 8.08-8.128 8.105a1.126 1.126 0 000 1.584c.213.205.497.32.792.322a1.15 1.15 0 00.792-.322l8.103-8.117 8.079 8.03a1.138 1.138 0 001.584 0 1.114 1.114 0 000-1.57l-8.08-8.031 8.08-8.08a1.126 1.126 0 000-1.584z" fill="#FFF" fill-rule="nonzero"/>
  </g>
</svg>
