<?xml version="1.0"?>
<svg xmlns="http://www.w3.org/2000/svg" xmlns:xlink="http://www.w3.org/1999/xlink" display="none">
  <symbol xmlns="http://www.w3.org/2000/svg" viewBox="0 0 20 20" id="Arrow_Back">
    <path fill-rule="nonzero" d="M11.574 3.861L5.436 10l6.138 6.139.99-.99L7.415 10l5.15-5.149z"/>
  </symbol>
  <symbol xmlns="http://www.w3.org/2000/svg" viewBox="0 0 20 20" id="Arrow_Down">
    <path fill-rule="nonzero" d="M15.82 7.1L10 12.92 4.18 7.1l-.99.99L10 14.9l6.81-6.81z"/>
  </symbol>
  <symbol xmlns="http://www.w3.org/2000/svg" viewBox="0 0 20 20" id="Arrow_Full_Left">
    <path fill-rule="nonzero" d="M7.149 4.144l.707.707L3.206 9.5 18.5 9.5v1l-15.294-.001 4.65 4.65-.707.707L1.293 10z"/>
  </symbol>
  <symbol xmlns="http://www.w3.org/2000/svg" viewBox="0 0 20 20" id="Arrow_Full_Right">
    <path fill-rule="nonzero" d="M12.851 4.145l-.707.707 4.65 4.648L1.5 9.501v1l15.294-.001-4.65 4.65.707.707L18.707 10z"/>
  </symbol>
  <symbol xmlns="http://www.w3.org/2000/svg" viewBox="0 0 20 20" id="Arrow_Left">
    <path fill-rule="nonzero" d="M11.574 3.861L5.436 10l6.138 6.139.99-.99L7.415 10l5.15-5.149z"/>
  </symbol>
  <symbol xmlns="http://www.w3.org/2000/svg" viewBox="0 0 20 20" id="Arrow_Right">
    <path fill-rule="nonzero" d="M8.426 3.861l-.99.99L12.584 10l-5.148 5.149.99.99L14.564 10z"/>
  </symbol>
  <symbol xmlns="http://www.w3.org/2000/svg" viewBox="0 0 20 20" id="Arrow_Up">
    <path fill-rule="nonzero" d="M16.81 11.91L10 5.1l-6.81 6.81.99.99L10 7.08l5.82 5.82z"/>
  </symbol>
  <symbol xmlns="http://www.w3.org/2000/svg" viewBox="0 0 20 20" id="Back_To_Top">
    <path d="M10 .018c5.523 0 10 4.477 10 10s-4.477 10-10 10-10-4.477-10-10 4.477-10 10-10zm0 1a9 9 0 100 18 9 9 0 000-18zm0 6.128l4.499 4.5-.707.706L10 8.561l-3.792 3.791-.707-.707L10 7.146z" fill-rule="nonzero"/>
  </symbol>
  <symbol xmlns="http://www.w3.org/2000/svg" viewBox="0 0 20 20" id="Badge_Video">
    <path d="M14 3v4.818L19 6h1v8h-1l-5-1.818v4.817H0V3.001h14zM4.24 7v6l5-3-5-3z" fill-rule="nonzero"/>
  </symbol>
  <symbol xmlns="http://www.w3.org/2000/svg" viewBox="0 0 20 20" id="Blog">
    <path d="M3.633 9.99v.92h2.715l.918-.92H3.633zm0 3.656h1.816v-.919H3.633v.92zm3.633-2.737l-.918 3.636L10 13.646 7.266 10.91zM3.633 8.172h5.449l.918-.9H3.633v.9zm0-3.636v.919h7.265l.918-.92H3.633zm11.133-.9l-6.582 6.608 2.48 2.503 6.602-6.608-2.5-2.503zm-1.133-1.818v.606l1.816-1.055v-.47a.867.867 0 00-.263-.635A.888.888 0 0014.53 0H.898a.865.865 0 00-.634.264A.867.867 0 000 .899v18.202c0 .247.088.46.264.635A.865.865 0 00.898 20h13.633c.26 0 .479-.088.655-.264a.867.867 0 00.263-.635V9.775l-1.816 1.056v7.35H1.816V1.819h11.817zm4.297 3.637L20 3.402 17.5.919l-2.05 2.053 2.48 2.483z" fill-rule="nonzero"/>
  </symbol>
  <symbol xmlns="http://www.w3.org/2000/svg" viewBox="0 0 20 20" id="Check_Active">
    <path d="M10 0c5.523 0 10 4.477 10 10s-4.477 10-10 10S0 15.523 0 10 4.477 0 10 0zm0 1a9 9 0 100 18 9 9 0 000-18zM7.74 14.93l-4.242-4.242.707-.707 3.535 3.535 7.962-7.961.706.707-8.668 8.667z" fill-rule="nonzero"/>
  </symbol>
  <symbol xmlns="http://www.w3.org/2000/svg" viewBox="0 0 20 20" id="Check_Inactive">
    <path d="M10 .018c5.523 0 10 4.477 10 10s-4.477 10-10 10-10-4.477-10-10 4.477-10 10-10zm0 1a9 9 0 100 18 9 9 0 000-18z" fill-rule="nonzero"/>
  </symbol>
  <symbol xmlns="http://www.w3.org/2000/svg" viewBox="0 0 20 20" id="Check_Mark">
    <path fill-rule="nonzero" d="M15.74 5.543l.708.707-8.708 8.708-.708-.707.005-.006-3.54-3.54.708-.706 3.539 3.539z"/>
  </symbol>
  <symbol xmlns="http://www.w3.org/2000/svg" viewBox="0 0 20 20" id="Close">
    <path fill-rule="nonzero" d="M16.01 3.282l.708.708-6.01 6.01 6.01 6.01-.708.708-6.01-6.01-6.01 6.01-.708-.708L9.292 10l-6.01-6.01.708-.708L10 9.292z"/>
  </symbol>
  <symbol xmlns="http://www.w3.org/2000/svg" viewBox="0 0 20 20" id="Comment">
    <path d="M19.238 1.622a2.525 2.525 0 00-1.856-.761H2.598a2.502 2.502 0 00-1.836.761A2.525 2.525 0 000 3.478v9.55a2.525 2.525 0 00.762 1.855c.48.497 1.145.773 1.836.762h6.093V20l6.094-4.355h2.597A2.6 2.6 0 0020 13.028v-9.55a2.525 2.525 0 00-.762-1.856z" fill-rule="nonzero"/>
  </symbol>
  <symbol xmlns="http://www.w3.org/2000/svg" viewBox="0 0 20 20" id="Dislike_Active">
    <path d="M2 13.145V2.86h2.543v10.284H2zm16.312-.457c.459-.305.688-.868.688-1.688v-.896c0-.116-.011-.23-.035-.343a2.968 2.968 0 00-.087-.325L16.51 3.09a1.734 1.734 0 00-.566-.782c-.25-.201-.56-.31-.88-.308H8.062c-.452 0-.868.211-1.245.633-.377.422-.566.879-.566 1.37v7.999c0 .246.116.6.348 1.063.233.463.418.777.558.94L12.05 20l.836-.95c.105-.116.238-.275.4-.474.163-.199.245-.392.245-.58l-.488-4.851h3.397c.79 0 1.413-.153 1.872-.457z" fill-rule="nonzero"/>
  </symbol>
  <symbol xmlns="http://www.w3.org/2000/svg" viewBox="0 0 20 20" id="Dislike_Inactive">
    <path d="M2 13.145V2.86h2.543v10.284H2zm16.312-.457c.459-.305.688-.868.688-1.688v-.896c0-.116-.011-.23-.035-.343a2.968 2.968 0 00-.087-.325L16.51 3.09a1.734 1.734 0 00-.566-.782c-.25-.201-.56-.31-.88-.308H8.062c-.452 0-.868.211-1.245.633-.377.422-.566.879-.566 1.37v7.999c0 .246.116.6.348 1.063.233.463.418.777.558.94L12.05 20l.836-.95c.105-.116.238-.275.4-.474.163-.199.245-.392.245-.58l-.488-4.851h3.397c.79 0 1.413-.153 1.872-.457zm-1.019-2.584V11a2.133 2.133 0 01-.017.316 3.623 3.623 0 01-.235.062c-.122.03-.323.044-.601.044h-5.26l.54 5.467-3.258-3.99a3.872 3.872 0 01-.279-.475 2.85 2.85 0 01-.226-.527V4.004c0-.035.023-.085.07-.15a.547.547 0 01.122-.131h6.775l2.352 6.275.017.062v.044z" fill-rule="nonzero"/>
  </symbol>
  <symbol xmlns="http://www.w3.org/2000/svg" viewBox="0 0 20 20" id="Drag_And_Drop">
    <path d="M19 15.497v1H1v-1h18zm0-5.999v1H1v-1h18zM19 3.5v1H1v-1h18z" fill-rule="nonzero"/>
  </symbol>
  <symbol xmlns="http://www.w3.org/2000/svg" viewBox="0 0 20 20" id="Edit">
    <path d="M.268 19.689l1.15-4.685L16.178.242l3.536 3.535L4.953 18.54.268 19.689zm1.364-1.364l2.81-.69L18.302 3.779l-2.122-2.121L2.321 15.515l-.69 2.81z" fill-rule="nonzero"/>
  </symbol>
  <symbol xmlns="http://www.w3.org/2000/svg" viewBox="0 0 20 20" id="Error">
    <path d="M10 .018c5.523 0 10 4.477 10 10s-4.477 10-10 10-10-4.477-10-10 4.477-10 10-10zm0 1a9 9 0 100 18 9 9 0 000-18zm3.9 4.365l.707.707-3.91 3.91 3.91 3.91-.707.707-3.911-3.91-3.909 3.91-.707-.707L9.282 10l-3.91-3.91.708-.707 3.909 3.91 3.911-3.91z" fill-rule="nonzero"/>
  </symbol>
  <symbol xmlns="http://www.w3.org/2000/svg" viewBox="0 0 20 20" id="Facebook">
    <path d="M20 10.061c0-5.523-4.477-10-10-10s-10 4.477-10 10c0 4.991 3.657 9.128 8.438 9.878v-6.988h-2.54V10.06h2.539V7.858c0-2.506 1.493-3.891 3.777-3.891 1.094 0 2.238.195 2.238.195v2.461h-1.261c-1.242 0-1.63.771-1.63 1.562v1.876h2.773l-.443 2.891h-2.33v6.988C16.343 19.189 20 15.052 20 10.061z" fill-rule="nonzero"/>
  </symbol>
  <symbol xmlns="http://www.w3.org/2000/svg" viewBox="0 0 20 20" id="Font_Size">
    <path d="M7.264 3l5.832 14h-1.299l-2.274-5.455h-5.82L1.43 17H.13L5.963 3h1.301zm7.69 5.355h1.318L19.873 17h-1.299l-1.093-2.622h-3.736l-.185.444-.651-1.559 2.045-4.908zm.66 1.539l-1.369 3.284h2.737l-1.368-3.284zm-9-5.334l-2.411 5.785h4.82L6.614 4.56z" fill-rule="nonzero"/>
  </symbol>
  <symbol xmlns="http://www.w3.org/2000/svg" viewBox="0 0 20 20" id="Forum">
    <path d="M3.633 6.833h2.734v-2.7H3.633v2.7zm0 4.527h2.734V8.64H3.633v2.72zm0 4.527h2.734v-2.72H3.633v2.72zm4.55-10.86h8.184v-.894H8.184v.894zm0 1.806h8.184V5.94H8.184v.893zm0 2.72h8.184V8.64H8.184v.913zm0 1.807h8.184v-.913H8.184v.913zm0 2.7h8.184v-.893H8.184v.893zm0 1.827h8.184v-.914H8.184v.914zm10-12.842v13.91a.711.711 0 01-.214.525.719.719 0 01-.528.213H2.56a.719.719 0 01-.528-.213.711.711 0 01-.215-.525V3.045c0-.207.072-.382.215-.525a.719.719 0 01.528-.213H17.44c.209 0 .385.071.528.213a.711.711 0 01.215.525zm1.553 16.183a.89.89 0 00.264-.641V1.413a.89.89 0 00-.264-.641.875.875 0 00-.654-.272H.898a.852.852 0 00-.634.272.89.89 0 00-.264.641v17.174c0 .246.088.46.264.641a.875.875 0 00.654.272h18.164c.26 0 .479-.09.654-.272z" fill-rule="nonzero"/>
  </symbol>
  <symbol xmlns="http://www.w3.org/2000/svg" viewBox="0 0 20 20" id="Fullscreen">
    <path d="M1.092 18.148v-4.795H0V20h6.647v-1.092H1.91l6.102-5.945a5.53 5.53 0 01-.41-.37c-.13-.13-.26-.267-.39-.41l-6.12 5.965zm6.14-10.331c.13-.143.26-.28.39-.41.13-.13.266-.253.41-.37L1.93 1.092h4.737V0H0v6.647h1.111V1.852l6.121 5.965zm11.676-5.965v4.795H20V0h-6.647v1.092h4.737l-6.102 5.945c.143.117.28.24.41.37.13.13.26.267.39.41l6.12-5.965zM18.888 20H20v-6.647h-1.111v4.795l-6.121-5.945-.39.39a5.53 5.53 0 01-.41.37l6.102 5.945h-4.737V20h5.556z" fill-rule="nonzero"/>
  </symbol>
  <symbol xmlns="http://www.w3.org/2000/svg" viewBox="0 0 20 20" id="Fullscreen_Exit">
    <path d="M6.934 18.828h1.113v-6.68h-6.66v1.114h4.746L0 19.219l.43.37.39.391 6.114-5.957v4.805zM.82 0L.43.39C.3.52.163.646.02.763l6.113 5.957H1.387v1.113h6.66v-6.68H6.934v4.805L.82 0zm12.266 5.957V1.152h-1.113v6.68h6.66V6.719h-4.746L20.02.762 19.59.39 19.2 0l-6.114 5.957zm0 6.191h-1.113v1.114l-.02 5.566h1.113l.02-4.805L19.199 20c.13-.143.26-.28.39-.41.131-.13.268-.254.411-.371l-6.113-5.957h4.746v-1.094l-5.547-.02z" fill-rule="nonzero"/>
  </symbol>
  <symbol xmlns="http://www.w3.org/2000/svg" viewBox="0 0 20 20" id="Gallery">
    <path d="M20 3v14H0V3h20zm-6.928 4l-8.43 8H18v-3.123L13.072 7zM3.75 5a1.75 1.75 0 100 3.5 1.75 1.75 0 000-3.5z" fill-rule="nonzero"/>
  </symbol>
  <symbol xmlns="http://www.w3.org/2000/svg" viewBox="0 0 20 20" id="Homepage_Active">
    <path d="M18 .5a2 2 0 012 2v15a2 2 0 01-2 2H2a2 2 0 01-2-2v-15a2 2 0 012-2h16zm.8 5.699H1.199L1.2 17.5a.8.8 0 00.7.794l.1.006h16a.8.8 0 00.794-.7l.006-.1V6.199zm-2.4 7.661a.6.6 0 010 1.2H3.6a.6.6 0 010-1.2h12.8zm0-4.43a.6.6 0 010 1.2H3.6a.6.6 0 010-1.2h12.8z" fill-rule="nonzero"/>
  </symbol>
  <symbol xmlns="http://www.w3.org/2000/svg" viewBox="0 0 20 20" id="Homepage_Inactive">
    <path d="M18 .5a2 2 0 012 2v15a2 2 0 01-2 2H2a2 2 0 01-2-2v-15a2 2 0 012-2h16zm.8 5.7H1.199L1.2 17.5a.8.8 0 00.7.794l.1.006h16a.8.8 0 00.794-.7l.006-.1V6.2zm-2.4 7.66a.6.6 0 010 1.2H3.6a.6.6 0 010-1.2h12.8zm0-4.43a.6.6 0 010 1.2H3.6a.6.6 0 010-1.2h12.8zM18 1.7H2a.8.8 0 00-.794.7l-.006.1L1.199 5H18.8V2.5a.8.8 0 00-.7-.794L18 1.7z" fill-rule="nonzero"/>
  </symbol>
  <symbol xmlns="http://www.w3.org/2000/svg" viewBox="0 0 20 20" id="House">
    <path d="M10 .6l10.023 8.953-.646.724L17.5 8.599V19h-5v.003h-5L7.499 19H2.5V8.599L.623 10.277l-.646-.724L10 .6zm0 1.3L3.5 7.706V18H7.5v-5.996H12.5V18h4V7.706L10 1.9zm1.5 11.103H8.499V18h3l.001-4.997z" fill-rule="nonzero"/>
  </symbol>
  <symbol xmlns="http://www.w3.org/2000/svg" viewBox="0 0 20 20" id="Union">
    <path d="M7.997 14.83l1.407 1.409 6.834-6.834-1.407-1.408 1.414-1.414 2.822 2.822-9.662 9.662-2.822-2.822 1.414-1.414zm8.225-12.467l1.414 1.414-5.455 5.455-1.414-1.414 5.455-5.455zm-8.404 8.404l1.414 1.414-5.455 5.455-1.414-1.414 5.455-5.455zM10.595.933l2.822 2.822-1.414 1.414-1.409-1.408-6.834 6.834 1.41 1.408-1.415 1.414-2.822-2.822L10.595.933z" fill-rule="nonzero"/>
  </symbol>
  <symbol xmlns="http://www.w3.org/2000/svg" viewBox="0 0 20 20" id="Hyperlink">
    <path d="M7.997 14.83l1.407 1.409 6.834-6.834-1.407-1.408 1.414-1.414 2.822 2.822-9.662 9.662-2.822-2.822 1.414-1.414zm8.225-12.467l1.414 1.414-5.455 5.455-1.414-1.414 5.455-5.455zm-8.404 8.404l1.414 1.414-5.455 5.455-1.414-1.414 5.455-5.455zM10.595.933l2.822 2.822-1.414 1.414-1.409-1.408-6.834 6.834 1.41 1.408-1.415 1.414-2.822-2.822L10.595.933z" fill-rule="nonzero"/>
  </symbol>
  <symbol xmlns="http://www.w3.org/2000/svg" viewBox="0 0 20 20" id="Instagram">
    <path d="M8.973 0h2.055l1.665.012.662.017.77.032c1.063.05 1.79.218 2.426.465a4.897 4.897 0 011.771 1.153 4.902 4.902 0 011.153 1.771c.247.636.416 1.363.465 2.427l.04 1.017.014.917.005 1.162-.003 3.021-.014.982-.025.747-.018.401c-.049 1.064-.218 1.791-.465 2.427a4.897 4.897 0 01-1.153 1.771 4.902 4.902 0 01-1.77 1.153c-.637.247-1.364.416-2.428.465l-.966.038-.84.015-1.29.006-3.216-.005-.917-.015-1.018-.04c-1.064-.049-1.79-.218-2.427-.465a4.897 4.897 0 01-1.77-1.153 4.902 4.902 0 01-1.154-1.77c-.222-.573-.381-1.22-.447-2.119l-.036-.73-.028-.928L0 11.028l.004-3.022.013-.981.036-1.008.006-.14c.05-1.064.218-1.79.465-2.427a4.905 4.905 0 011.153-1.772A4.905 4.905 0 013.45.525C4.023.303 4.67.144 5.568.078l.582-.03.875-.03.605-.01L8.973.001zm3.576 1.812l-.627-.006H8.078l-.759.008-.895.026-.465.02c-.731.033-1.212.133-1.555.239l-.21.07a3.092 3.092 0 00-1.242.783c-.35.35-.567.683-.748 1.15l-.07.193c-.106.314-.213.753-.26 1.43l-.046 1.02-.016.707-.01 1.992.004 2.478.006.627.028 1.027.02.465c.033.731.133 1.212.239 1.556l.07.21.035.091c.181.467.398.8.748 1.15.35.35.683.567 1.15.748l.193.07.229.07c.333.093.785.175 1.435.204l.917.036.911.016 1.171.005 3.255-.005.91-.016.918-.036c.813-.037 1.316-.156 1.665-.274l.192-.07c.467-.18.8-.398 1.15-.748.35-.35.567-.683.748-1.15l.07-.192c.118-.35.237-.852.274-1.665l.036-.918.016-.91.005-1.171-.005-3.255-.016-.91-.036-.918c-.037-.812-.156-1.316-.274-1.665l-.07-.192a3.092 3.092 0 00-.748-1.15 3.092 3.092 0 00-1.15-.748l-.092-.035-.21-.07a5.782 5.782 0 00-1.32-.225l-1.02-.046-.707-.016zM10 4.865a5.135 5.135 0 110 10.27 5.135 5.135 0 010-10.27zm0 1.802a3.333 3.333 0 100 6.666 3.333 3.333 0 000-6.666zm5.338-3.205a1.2 1.2 0 110 2.4 1.2 1.2 0 010-2.4z" fill-rule="nonzero"/>
  </symbol>
  <symbol xmlns="http://www.w3.org/2000/svg" viewBox="0 0 20 20" id="Viber">
    <path d="M19.146 11.5885C19.7427 6.56601 18.8593 3.39517 17.266 1.96101L17.2668 1.96017C14.6952 -0.488993 6.01016 -0.851493 2.9335 2.07017C1.55183 3.49934 1.06516 5.59684 1.01183 8.19351C0.958497 10.791 0.895164 15.6568 5.42933 16.9768H5.4335L5.42933 18.9927C5.42933 18.9927 5.3985 19.8093 5.92016 19.9735C6.48204 20.1556 6.75424 19.8299 8.33385 17.9402L8.64266 17.571C11.746 17.8402 14.1293 17.2235 14.4002 17.1335C14.4561 17.1148 14.5354 17.0939 14.6337 17.0681C15.6365 16.8046 18.6239 16.0197 19.146 11.5885ZM8.9485 16.1527C8.9485 16.1527 6.98433 18.6018 6.3735 19.2377C6.1735 19.4443 5.95433 19.4252 5.95766 19.0152C5.95766 18.746 5.97266 15.6685 5.97266 15.6685C2.26061 14.6047 2.34439 10.7047 2.39205 8.48627L2.39205 8.48614C2.39375 8.40723 2.3954 8.33045 2.39683 8.25601C2.4385 6.08767 2.83516 4.31184 4.00516 3.11601C6.70433 0.585174 14.3185 1.15101 16.2585 2.97434C18.4172 4.88809 17.9116 9.98124 17.8072 11.033L17.8072 11.033L17.8072 11.0336C17.7969 11.137 17.7905 11.2012 17.791 11.2193C17.3521 14.8764 14.9789 15.4495 14.1248 15.6557L14.1248 15.6557L14.1248 15.6557C14.0303 15.6785 13.9544 15.6968 13.9018 15.7143C13.676 15.7893 11.5802 16.3285 8.9485 16.1527ZM10.0355 3.5918C9.71471 3.5918 9.71471 4.0918 10.0355 4.09596C12.5247 4.11513 14.5747 5.85013 14.5972 9.03263C14.5972 9.36846 15.0889 9.3643 15.0847 9.02846H15.0839C15.0572 5.5993 12.8189 3.61096 10.0355 3.5918ZM13.7966 8.51758C13.7924 8.85342 13.3015 8.83758 13.3091 8.50592C13.3474 6.85008 12.3466 5.55342 10.4466 5.40925C10.1266 5.38592 10.1599 4.88175 10.4807 4.90508C12.6716 5.06925 13.8374 6.62675 13.7966 8.51758ZM12.7841 10.6565C12.3725 10.4181 11.9533 10.5665 11.78 10.8006L11.4174 11.2698C11.2333 11.5081 10.8891 11.4765 10.8891 11.4765C8.37745 10.8123 7.70578 8.18398 7.70578 8.18398C7.70578 8.18398 7.67495 7.82815 7.90495 7.63731L8.35828 7.26231C8.58495 7.08231 8.72828 6.64898 8.49745 6.22315C8.03247 5.38305 7.68263 4.95798 7.44827 4.67323C7.37181 4.58034 7.30765 4.50238 7.25578 4.42981C7.03412 4.15231 6.70078 4.08981 6.35412 4.27731H6.34662C5.62578 4.69898 4.83662 5.48815 5.08912 6.30065C5.16382 6.44919 5.24938 6.65408 5.35293 6.90208L5.35293 6.90209C5.84657 8.0843 6.74917 10.2459 8.83495 11.9515C10.0208 12.9273 11.8975 13.9273 12.6941 14.1581L12.7016 14.1698C13.4866 14.4315 14.2499 13.6115 14.6574 12.869V12.8631C14.8383 12.504 14.7783 12.164 14.5141 11.9415C14.0458 11.4848 13.3391 10.9806 12.7841 10.6565ZM12.0555 8.08863C12.0139 7.22946 11.6255 6.81113 10.8247 6.76447C10.5005 6.7453 10.5305 6.24113 10.8514 6.2603C11.9047 6.31863 12.4897 6.94363 12.543 8.0653C12.558 8.40113 12.0705 8.42447 12.0555 8.08863Z" fill-rule="nonzero"/>
  </symbol>
  <symbol xmlns="http://www.w3.org/2000/svg" viewBox="0 0 20 20" id="Pinterest">
    <path d="M10.0247 0C4.49383 0 0 4.46075 0 10.0001C0 15.5392 4.49383 20 10.0247 20C15.5556 20 20 15.5392 20 10.0001C20 4.46075 15.5556 0 10.0247 0V0ZM10.8148 12.6962C10.0741 12.6471 9.77778 12.2551 9.18519 11.9119C8.8889 13.5784 8.49384 15.147 7.35803 15.9803C7.01236 13.4804 7.85185 11.6178 8.24692 9.60785C7.55555 8.48041 8.34568 6.12753 9.77778 6.71568C11.5556 7.40203 8.24692 11.0294 10.4691 11.4705C12.8395 11.9607 13.7778 7.40203 12.3457 5.93139C10.2222 3.8235 6.22222 5.88228 6.71606 8.9215C6.8642 9.65696 7.60495 9.90192 7.06174 10.9315C5.67901 10.6374 5.28396 9.55875 5.33333 8.18631C5.43208 5.88228 7.4074 4.26459 9.4321 4.01964C11.9506 3.72556 14.321 4.95096 14.6173 7.30382C15.0123 10.0001 13.4815 12.8923 10.8148 12.6962L10.8148 12.6962Z" fill-rule="nonzero"/>
  </symbol>
  <symbol xmlns="http://www.w3.org/2000/svg" viewBox="0 0 20 20" id="Telegram">
    <path d="M10 20C15.5242 20 20 15.5242 20 10C20 4.47583 15.5242 0 10 0C4.47583 0 0 4.47583 0 10C0 15.5242 4.47583 20 10 20ZM4.57583 9.78333L14.2175 6.06583C14.665 5.90417 15.0558 6.175 14.9108 6.85167L14.9117 6.85083L13.27 14.585C13.1483 15.1333 12.8225 15.2667 12.3667 15.0083L9.86667 13.1658L8.66083 14.3275C8.5275 14.4608 8.415 14.5733 8.15667 14.5733L8.33417 12.0292L12.9675 7.84333C13.1692 7.66583 12.9225 7.56583 12.6567 7.7425L6.93083 11.3475L4.4625 10.5775C3.92667 10.4075 3.915 10.0417 4.57583 9.78333V9.78333Z" fill-rule="nonzero"/>
  </symbol>
  <symbol xmlns="http://www.w3.org/2000/svg" viewBox="0 0 20 20" id="Whatsapp">
    <path d="M0.0841667 9.91119C0.0883333 1.17286 10.6925 -3.31964 17.1 2.87453L17.0875 2.90703C18.9667 4.77869 20 7.26953 20 9.91619C19.9967 17.457 11.8667 22.182 5.27917 18.6237L0 20.0004L1.41333 14.8654C0.541667 13.3612 0.0841667 11.6579 0.0841667 9.91119ZM5.825 16.9754C11.3475 20.222 18.33 16.2495 18.335 9.88869C18.335 7.68869 17.4733 5.61286 15.9108 4.06369C14.3475 2.50119 12.2717 1.63869 10.06 1.63869C3.55 1.63869 -0.398333 8.78869 3.03833 14.2595L3.2375 14.572L2.4 17.6095L5.525 16.797L5.825 16.9754ZM14.5818 11.9843L14.5893 11.9218C14.6161 11.9339 14.6418 11.9453 14.6666 11.9564C14.8731 12.0483 15.0092 12.1089 15.0643 12.2093C15.1268 12.3218 15.1268 12.8093 14.9143 13.3968C14.7068 13.9843 13.7126 14.5093 13.2343 14.5852C12.8051 14.6468 12.2626 14.6735 11.6676 14.4843C9.46428 13.7277 8.25928 13.1827 5.99761 10.2227C4.84678 8.60099 4.50761 7.07599 5.85261 5.59766C6.16178 5.27599 6.51261 5.26933 6.99261 5.31099C7.00776 5.31099 7.0234 5.3104 7.03948 5.30979C7.18716 5.30417 7.37226 5.29713 7.55261 5.73599C7.64396 5.95011 7.7909 6.30586 7.93239 6.64841C8.11359 7.0871 8.28585 7.50414 8.32095 7.57433C8.38261 7.69849 8.42511 7.83599 8.34178 8.01099C8.14577 8.38195 7.9416 8.60719 7.78929 8.77524C7.58027 9.00585 7.46887 9.12874 7.61011 9.37266C7.75678 9.62266 8.25345 10.4352 8.99345 11.0977C9.78855 11.8091 10.4803 12.1089 10.8314 12.2611C10.8997 12.2907 10.9552 12.3148 10.9959 12.3352C11.2434 12.4477 11.3884 12.4352 11.5343 12.2727C11.6784 12.1077 12.1568 11.5502 12.3209 11.3043C12.5453 10.9678 12.7292 11.0596 14.3086 11.8481C14.3954 11.8914 14.4864 11.9368 14.5818 11.9843Z" fill-rule="nonzero"/>
  </symbol>
  <symbol xmlns="http://www.w3.org/2000/svg" viewBox="0 0 20 20" id="Latest_News_Active">
    <path d="M10 0a9.99 9.99 0 017.461 3.34l.123-.622a1 1 0 011.979.268l-.016.116-.576 2.945a1 1 0 01-1.058.805l-.115-.016-2.944-.575a1 1 0 01.267-1.978l.116.015.467.09A8 8 0 1018 10a1 1 0 012 .001c0 5.523-4.477 10-10 10S0 15.523 0 10 4.477 0 10 0zm-.5 4.5a1 1 0 01.994.883l.007.117V10h5a1 1 0 01.993.883L16.5 11a1 1 0 01-.883.993L15.5 12h-6a1 1 0 01-.993-.883L8.501 11V5.5a1 1 0 011-1z" fill-rule="nonzero"/>
  </symbol>
  <symbol xmlns="http://www.w3.org/2000/svg" viewBox="0 0 20 20" id="Latest_News_Inactive">
    <path d="M10 .4a9.592 9.592 0 017.69 3.853l.286-1.458a.6.6 0 01.607-.485l.097.011a.6.6 0 01.485.607l-.011.097-.576 2.945a.6.6 0 01-.607.485l-.097-.011-2.944-.575a.6.6 0 01.133-1.189l.097.01L16.75 5a8.4 8.4 0 101.648 5 .6.6 0 011.2 0 9.6 9.6 0 01-9.6 9.6A9.6 9.6 0 0110 .4zm-.5 4.5a.6.6 0 01.592.503l.008.097v4.9h5.4a.6.6 0 01.592.503L16.1 11a.6.6 0 01-.503.592l-.097.008h-6a.6.6 0 01-.592-.503L8.9 11V5.5a.6.6 0 01.6-.6z" fill-rule="nonzero"/>
  </symbol>
  <symbol xmlns="http://www.w3.org/2000/svg" viewBox="0 0 20 20" id="Like_Active">
    <path d="M1 7.236v10.855h2.693V7.236H1zm17.272.483c.485.321.728.915.728 1.78v.947c0 .122-.012.243-.037.362-.024.116-.055.23-.092.343l-2.508 6.699a1.83 1.83 0 01-.6.825 1.473 1.473 0 01-.931.325H7.418c-.48 0-.919-.223-1.319-.668-.4-.445-.6-.928-.6-1.447V8.442c0-.26.124-.634.37-1.122.246-.489.442-.82.59-.993L11.64 0l.886 1.002c.11.124.252.29.424.5.172.211.258.415.258.613l-.516 5.121h3.596c.836 0 1.497.161 1.983.483z" fill-rule="nonzero"/>
  </symbol>
  <symbol xmlns="http://www.w3.org/2000/svg" viewBox="0 0 20 20" id="Like_Inactive">
    <path d="M1 7.236v10.855h2.693V7.236H1zm17.272.483c.485.321.728.915.728 1.78v.947c0 .122-.012.243-.037.362-.024.116-.055.23-.092.343l-2.508 6.699a1.83 1.83 0 01-.6.825 1.473 1.473 0 01-.931.325H7.418c-.48 0-.919-.223-1.319-.668-.4-.445-.6-.928-.6-1.447V8.442c0-.26.124-.634.37-1.122.246-.489.442-.82.59-.993L11.64 0l.886 1.002c.11.124.252.29.424.5.172.211.258.415.258.613l-.516 5.121h3.596c.836 0 1.497.161 1.983.483zm-1.08 2.727V9.5a2.245 2.245 0 00-.018-.334 3.843 3.843 0 00-.249-.065c-.129-.03-.341-.046-.636-.046h-5.57l.572-5.77-3.449 4.211a4.087 4.087 0 00-.295.501c-.123.235-.203.42-.24.557v8.33c0 .038.025.09.074.158.05.069.092.115.13.14h7.173l2.49-6.624.019-.065v-.047z" fill-rule="nonzero"/>
  </symbol>
  <symbol xmlns="http://www.w3.org/2000/svg" viewBox="0 0 20 20" id="Location">
    <path d="M10.01 0c1.015 0 1.972.195 2.87.586a7.746 7.746 0 012.354 1.621 7.608 7.608 0 011.592 2.383c.378.924.567 1.9.567 2.93 0 .937-.124 1.803-.372 2.597a11.071 11.071 0 01-1.044 2.334c-.45.762-.993 1.54-1.631 2.334s-1.348 1.654-2.13 2.578a342.171 342.171 0 00-1.835 2.188L10.01 20l-.39-.45c-.235-.273-.463-.54-.684-.8-.222-.26-.443-.514-.665-.762-.846-.99-1.62-1.907-2.324-2.754a23.687 23.687 0 01-1.777-2.51 11.734 11.734 0 01-1.152-2.49 8.66 8.66 0 01-.41-2.714 7.45 7.45 0 01.585-2.93 7.695 7.695 0 011.582-2.383A7.624 7.624 0 017.12.586 7.17 7.17 0 0110.01 0zm0 .996a6.22 6.22 0 00-2.5.508A6.362 6.362 0 005.469 2.9a6.7 6.7 0 00-1.377 2.08 6.63 6.63 0 00-.488 2.54c0 .885.123 1.712.37 2.48.248.755.603 1.514 1.065 2.275a20.334 20.334 0 001.709 2.373 133.49 133.49 0 002.285 2.696 264.298 264.298 0 00.957 1.113c.26-.3.515-.596.762-.889a169.363 169.363 0 002.793-3.35c.612-.754 1.13-1.49 1.553-2.206.423-.716.752-1.433.986-2.149a7.904 7.904 0 00.332-2.343c0-.899-.17-1.745-.508-2.54a6.7 6.7 0 00-1.377-2.08 6.362 6.362 0 00-2.04-1.396A6.082 6.082 0 0010.01.996zm0 2.95c.95 0 1.76.338 2.431 1.015a3.345 3.345 0 011.006 2.441c0 .95-.335 1.761-1.006 2.432a3.313 3.313 0 01-2.431 1.006c-.95 0-1.765-.335-2.442-1.006a3.297 3.297 0 01-1.015-2.432c0-.95.338-1.764 1.015-2.441.677-.677 1.491-1.016 2.442-1.016zm0 .995c-.69 0-1.273.241-1.748.723a2.386 2.386 0 00-.713 1.738c0 .677.24 1.257.722 1.739a2.37 2.37 0 001.739.722 2.37 2.37 0 001.738-.722 2.37 2.37 0 00.723-1.739 2.37 2.37 0 00-.723-1.738 2.37 2.37 0 00-1.738-.723z" fill-rule="nonzero"/>
  </symbol>
  <symbol xmlns="http://www.w3.org/2000/svg" viewBox="0 0 20 20" id="Logo">
    <path d="M10.493 10.908L3.394 4.604a2.285 2.285 0 00-.771-.505 2.11 2.11 0 00-.666-.112c-.25 0-.498.04-.735.12a1.657 1.657 0 00-.624.378c-.19.188-.338.416-.433.667a2.623 2.623 0 00-.164.977v9.68h3.254V8.903l7.1 6.303c.212.22.469.393.752.506.221.073.452.11.684.111.253 0 .505-.04.745-.12.238-.077.454-.209.632-.385.189-.193.336-.424.432-.677.117-.312.173-.643.165-.976v-9.49h-3.272v6.732zm5.265-6.732l-1.241 3.033h1.9v8.804H20V4.176h-4.242z" fill-rule="nonzero"/>
  </symbol>
  <symbol xmlns="http://www.w3.org/2000/svg" viewBox="0 0 20 20" id="Mail">
    <path d="M20 2.75v14.767H0V2.75h20zm-3.3 3.058l-6.701 5.024L3.3 5.808l-.6.8 7.3 5.474 7.3-5.474-.6-.8z" fill-rule="nonzero"/>
  </symbol>
  <symbol xmlns="http://www.w3.org/2000/svg" viewBox="0 0 20 20" id="Menu_Active">
    <path d="M18 15.9a1 1 0 010 2H2a1 1 0 010-2h16zM18 9a1 1 0 010 2H2a1 1 0 010-2h16zm0-6.9a1 1 0 010 2H2a1 1 0 110-2h16z" fill-rule="nonzero"/>
  </symbol>
  <symbol xmlns="http://www.w3.org/2000/svg" viewBox="0 0 20 20" id="Menu_Inactive">
    <path d="M18.4 16.3a.6.6 0 010 1.2H1.6a.6.6 0 010-1.2h16.8zm0-6.9a.6.6 0 010 1.2H1.6a.6.6 0 010-1.2h16.8zm0-6.9a.6.6 0 010 1.2H1.6a.6.6 0 110-1.2h16.8z" fill-rule="nonzero"/>
  </symbol>
  <symbol xmlns="http://www.w3.org/2000/svg" viewBox="0 0 20 20" id="Missing_Image">
    <path d="M10.04.31a5.77 5.77 0 100 11.54 5.77 5.77 0 000-11.54zm3.465 12.155h.116a6.271 6.271 0 016.268 6.042l.004.23V20h-1.04v-1.263a5.231 5.231 0 00-5.016-5.227l-.112-.003-.215.096a9.031 9.031 0 01-3.14.702l-.364.007a9.021 9.021 0 01-3.503-.71l-.216-.095-.11.003a5.231 5.231 0 00-5.012 5.012l-.005.215V20H.12v-1.263a6.271 6.271 0 016.042-6.268l.346-.004.104.049a7.98 7.98 0 006.466.142l.427-.19zM10.04 1.35a4.73 4.73 0 110 9.46 4.73 4.73 0 010-9.46z" fill-rule="nonzero"/>
  </symbol>
  <symbol xmlns="http://www.w3.org/2000/svg" viewBox="0 0 20 20" id="More">
    <path d="M10 5.5a1.5 1.5 0 110-3 1.5 1.5 0 010 3zm0 6a1.5 1.5 0 110-3 1.5 1.5 0 010 3zm0 6a1.5 1.5 0 110-3 1.5 1.5 0 010 3z" fill-rule="nonzero"/>
  </symbol>
  <symbol xmlns="http://www.w3.org/2000/svg" viewBox="0 0 20 20" id="More_Alt">
    <path d="M14.5 10a1.5 1.5 0 113 0 1.5 1.5 0 01-3 0zm-6 0a1.5 1.5 0 113 0 1.5 1.5 0 01-3 0zm-6 0a1.5 1.5 0 113 0 1.5 1.5 0 01-3 0z" fill-rule="nonzero"/>
  </symbol>
  <symbol xmlns="http://www.w3.org/2000/svg" viewBox="0 0 20 20" id="Pause">
    <path d="M11.935 20h3.989V0h-3.989v20zM4.076 0l.02 20h3.988V0H4.076z" fill-rule="nonzero"/>
  </symbol>
  <symbol xmlns="http://www.w3.org/2000/svg" viewBox="0 0 20 20" id="Photo">
    <path d="M14.102 5.76h4.238v11.028H1.66V5.76h4.238l1.66-2.548h4.922l1.622 2.548zM12.5 10.856c0 .703-.247 1.3-.742 1.792a2.34 2.34 0 01-1.758.756c-.69 0-1.283-.252-1.777-.756a2.463 2.463 0 01-.723-1.792c0-.703.247-1.307.742-1.812A2.37 2.37 0 0110 8.308c.69 0 1.283.245 1.777.736a2.53 2.53 0 01.723 1.812zM7.05 7.85a4.234 4.234 0 00-.878 1.354 4.158 4.158 0 00-.332 1.652c0 .57.11 1.115.332 1.632.221.531.514.982.879 1.354.377.385.82.69 1.328.916a4.038 4.038 0 003.242 0 4.27 4.27 0 001.328-.916c.365-.372.658-.823.88-1.354a4.108 4.108 0 00.331-1.632c0-.584-.11-1.135-.332-1.652a4.232 4.232 0 00-.879-1.354 4.269 4.269 0 00-1.328-.916 4.037 4.037 0 00-3.242 0 4.27 4.27 0 00-1.328.916zM5 4.048H0V18.5h20V4.048h-5L13.34 1.5H6.66L5 4.048z" fill-rule="nonzero"/>
  </symbol>
  <symbol xmlns="http://www.w3.org/2000/svg" viewBox="0 0 20 20" id="Pinned_Summary">
    <path d="M17.875 0C18.496 0 19 .497 19 1.111V18.89c0 .614-.504 1.111-1.125 1.111H2.125A1.118 1.118 0 011 18.889V1.11C1 .497 1.504 0 2.125 0h15.75zm-2.042 2H4.167c-.599 0-1.092.441-1.16 1.01L3 3.143v13.714c0 .586.45 1.07 1.03 1.135l.137.008h11.666c.599 0 1.092-.441 1.16-1.01l.007-.133V3.143c0-.586-.45-1.07-1.03-1.135L15.832 2zM13 13v1.5H8V13h5zm-6.5 0v1.5H5V13h1.5zM15 9v1.5H8V9h7zM6.5 9v1.5H5V9h1.5zM15 5v1.5H8V5h7zM6.5 5v1.5H5V5h1.5z" fill-rule="nonzero"/>
  </symbol>
  <symbol xmlns="http://www.w3.org/2000/svg" viewBox="0 0 20 20" id="Play">
    <path fill-rule="nonzero" d="M3 20l16-10L3 0z"/>
  </symbol>
  <symbol xmlns="http://www.w3.org/2000/svg" viewBox="0 0 20 20" id="Play_Circle">
    <path d="M7.988 12.988L14.004 10 7.988 7.012v5.976zM10 .996a8.78 8.78 0 013.496.703 9.312 9.312 0 012.861 1.944 9.312 9.312 0 011.944 2.86A8.78 8.78 0 0119.004 10a8.78 8.78 0 01-.703 3.496 9.312 9.312 0 01-1.944 2.861 9.312 9.312 0 01-2.86 1.944 8.78 8.78 0 01-3.497.703 8.78 8.78 0 01-3.496-.703 9.312 9.312 0 01-2.861-1.944 9.313 9.313 0 01-1.944-2.86A8.78 8.78 0 01.996 10 8.78 8.78 0 011.7 6.504a9.313 9.313 0 011.944-2.861 9.312 9.312 0 012.86-1.944A8.78 8.78 0 0110 .996zm3.887 18.223a10.277 10.277 0 003.193-2.158 10.064 10.064 0 002.139-3.174C19.739 12.676 20 11.38 20 10s-.26-2.676-.781-3.887A10.005 10.005 0 0017.08 2.92 10.006 10.006 0 0013.887.78 9.731 9.731 0 0010 0C8.62 0 7.324.26 6.113.781A10.006 10.006 0 002.92 2.92 10.006 10.006 0 00.78 6.113 9.732 9.732 0 000 10c0 1.38.26 2.676.781 3.887A10.065 10.065 0 002.92 17.06c.905.904 1.97 1.624 3.193 2.158C7.324 19.739 8.62 20 10 20s2.676-.26 3.887-.781z" fill-rule="nonzero"/>
  </symbol>
  <symbol xmlns="http://www.w3.org/2000/svg" viewBox="0 0 20 20" id="Plus">
    <path fill-rule="nonzero" d="M10.5 4l-.001 5.499L16 9.5v1l-5.501-.001L10.5 16h-1l-.001-5.501L4 10.5v-1l5.499-.001L9.5 4z"/>
  </symbol>
  <symbol xmlns="http://www.w3.org/2000/svg" viewBox="0 0 20 20" id="Podcast">
    <path d="M18.595 6.327c.18.546.3 1.106.359 1.68a8.975 8.975 0 01-.31 3.418 9.913 9.913 0 01-.632 1.602 8.435 8.435 0 01-.97 1.494 9.397 9.397 0 01-1.262 1.28 1.235 1.235 0 01-.242.126.72.72 0 01-.262.05.81.81 0 01-.33-.07.753.753 0 01-.272-.204.758.758 0 01-.185-.577.774.774 0 01.282-.537 7.023 7.023 0 001.815-2.236 7.485 7.485 0 00.805-2.764c.09-.977-.01-1.93-.3-2.862a7.12 7.12 0 00-1.408-2.53 2.727 2.727 0 00-.252-.293 6.01 6.01 0 00-.291-.273.127.127 0 00-.059-.059.305.305 0 01-.077-.058A6.973 6.973 0 0012.48 2.01a7.523 7.523 0 00-2.814-.43c-.945.039-1.863.26-2.756.664a7.229 7.229 0 00-2.388 1.719 6.937 6.937 0 00-1.514 2.52 7.349 7.349 0 00.233 5.547 7.264 7.264 0 001.728 2.364c.155.143.24.322.252.537a.757.757 0 01-.475.752.854.854 0 01-.592.01.825.825 0 01-.253-.147 8.846 8.846 0 01-1.184-1.328 9.661 9.661 0 01-.912-1.543 9.383 9.383 0 01-.553-1.621 8.946 8.946 0 01-.243-1.72 8.883 8.883 0 01.505-3.379 8.89 8.89 0 01.776-1.62c.31-.509.667-.984 1.068-1.427.18-.182.362-.361.543-.537a4.56 4.56 0 01.583-.479c0-.013.003-.02.01-.02.006 0 .009-.006.009-.019h.02l.019-.02A8.865 8.865 0 017.376.389a8.93 8.93 0 013.416-.351A9.402 9.402 0 0112.5.349a8.167 8.167 0 011.61.645 8.17 8.17 0 011.496.947c.465.371.899.791 1.3 1.26a8.48 8.48 0 011.689 3.126zm-4.29-.743a5.59 5.59 0 011.02 1.905 5.63 5.63 0 01.222 2.158 5.696 5.696 0 01-.592 2.11 5.543 5.543 0 01-1.33 1.7.666.666 0 01-.223.116.799.799 0 01-.543-.02.543.543 0 01-.243-.194.705.705 0 01-.165-.538.716.716 0 01.262-.498A4.244 4.244 0 0014.13 9.53a4.457 4.457 0 00-.174-1.602 3.901 3.901 0 00-.757-1.406 2.674 2.674 0 00-.272-.313.094.094 0 01-.049-.02.147.147 0 01-.048-.058 3.897 3.897 0 00-1.359-.84 3.867 3.867 0 00-1.524-.234 3.994 3.994 0 00-1.484.371c-.48.221-.906.54-1.281.957a4.092 4.092 0 00-.835 1.407 4.388 4.388 0 00-.223 1.552c.02.528.139 1.039.359 1.534.22.508.53.95.931 1.328.143.143.22.316.233.518a.645.645 0 01-.194.517.616.616 0 01-.233.176.727.727 0 01-.29.059.671.671 0 01-.243-.049.863.863 0 01-.243-.147 5.434 5.434 0 01-1.252-1.748 5.551 5.551 0 01-.495-2.12 5.876 5.876 0 01.32-2.148A5.6 5.6 0 016.114 5.39c.103-.104.207-.205.31-.303.104-.097.214-.192.33-.283v-.02a.319.319 0 01.049-.039.319.319 0 00.049-.039h.01c.006 0 .009-.006.009-.02.013 0 .026-.006.039-.019.013-.013.026-.02.039-.02l.029-.029.029-.029.01-.01c.006-.006.016-.01.029-.01a5.448 5.448 0 011.688-.8 5.362 5.362 0 011.883-.176c.712.065 1.388.27 2.028.615.641.345 1.188.804 1.64 1.377h.02zm-4.173 1.641c.505 0 .932.18 1.28.537.35.358.525.785.525 1.28 0 .508-.175.94-.524 1.299-.35.358-.776.537-1.281.537-.505 0-.932-.18-1.281-.537a1.792 1.792 0 01-.524-1.3c0-.494.174-.92.524-1.279.35-.358.776-.537 1.28-.537zm1.271 5.167c.356.397.534.875.534 1.435v4.142c0 .56-.178 1.038-.534 1.435-.356.397-.78.596-1.271.596-.505 0-.932-.199-1.281-.596-.35-.397-.524-.876-.524-1.435v-4.142c0-.56.174-1.038.524-1.435.35-.397.776-.596 1.28-.596.493 0 .916.199 1.272.596z" fill-rule="nonzero"/>
  </symbol>
  <symbol xmlns="http://www.w3.org/2000/svg" viewBox="0 0 20 20" id="RSS">
    <path d="M19.976 18.57c.061-.33 0-1.69-.114-2.565-.432-3.377-1.75-6.477-3.913-9.186-.639-.803-1.957-2.121-2.77-2.77C10.717 2.082 7.967.825 4.929.269 3.601.053 1.706-.07 1.253.053A1.72 1.72 0 00.058 1.299a1.649 1.649 0 001.524 2.019l.65.038c1.32.085 2.106.192 3.017.415a15.058 15.058 0 0110.514 9.444c.504 1.378.736 2.502.858 4.117l.067.964c.057.663.134.813.435 1.139.947 1.01 2.605.504 2.853-.865zm-6.736.041c.072-.402-.01-1.658-.175-2.503-.34-1.781-1.215-3.645-2.4-5.108C8.864 8.766 6.094 7.21 3.22 6.82c-.824-.124-1.669-.145-1.967-.063-.814.227-1.36 1.071-1.215 1.875.03.164.092.391.144.494.144.288.484.608.772.752l.13.057c.146.057.282.078.612.099l.557.037c.466.035.687.068 1.132.167 3.017.639 5.468 2.956 6.261 5.901l.082.322c.082.344.12.609.16 1.066l.036.445c.072.969.144 1.174.536 1.545a1.656 1.656 0 002.78-.906zM3.374 19.95c.948-.155 1.74-.731 2.153-1.576a2.817 2.817 0 000-2.595 2.925 2.925 0 00-2.07-1.566 2.387 2.387 0 00-1.01-.02c-1.05.154-2.039 1.04-2.337 2.09-.474 1.669.638 3.389 2.358 3.667.412.062.494.062.906 0z" fill-rule="nonzero"/>
  </symbol>
  <symbol xmlns="http://www.w3.org/2000/svg" viewBox="0 0 20 20" id="Radio_Active">
    <path d="M9 10h2V9H9v1zm0-3h2V6H9v1zm0-3h2V3H9v1zM5 7.5V15h10V7.5h2v1h-1v7.501h-5.5v3h2.978v1H6.522v-1H9.5v-3H4v-7.5H3v-1h2zM13 0v13H7V0h6z" fill-rule="nonzero"/>
  </symbol>
  <symbol xmlns="http://www.w3.org/2000/svg" viewBox="0 0 20 20" id="Radio_Inactive">
    <path d="M5 7.5V15h10V7.5h2v1h-1v7.501h-5.5v3h2.978v1H6.522v-1H9.5v-3H4v-7.5H3v-1h2zM13 0v13H7V0h6zm-1 1H8v2h1.25v1H8v2h1.25v1H8v2h1.25v1H8v2h4v-2h-1.25V9H12V7h-1.25V6H12V4h-1.25V3H12V1z" fill-rule="nonzero"/>
  </symbol>
  <symbol xmlns="http://www.w3.org/2000/svg" viewBox="0 0 20 20" id="Reply">
    <path fill-rule="nonzero" d="M11.854 3.146L16.207 7.5l-4.353 4.354-.708-.708L14.293 8H6.5v9.003h-1V7h8.793l-3.147-3.146z"/>
  </symbol>
  <symbol xmlns="http://www.w3.org/2000/svg" viewBox="0 0 20 20" id="Save_Active">
    <path d="M2.06 20l.919-.547a73.645 73.645 0 011.835-1.035 63.112 63.112 0 012.07-1.064 25.827 25.827 0 011.856-.83c.56-.222.977-.333 1.25-.333.17 0 .495.092.977.274.482.195 1.048.446 1.699.752s1.36.66 2.129 1.064c.755.39 1.497.788 2.226 1.192l.918.488V1.836c0-.56-.166-1.006-.498-1.338C17.11.166 16.657 0 16.084 0H3.896c-.56 0-1.005.166-1.337.498-.332.332-.498.778-.498 1.338V20z" fill-rule="nonzero"/>
  </symbol>
  <symbol xmlns="http://www.w3.org/2000/svg" viewBox="0 0 20 20" id="Save_Inactive">
    <path d="M16.084 0c.573 0 1.025.166 1.357.498.296.295.46.68.492 1.156l.006.182V19.96l-.918-.488c-.486-.27-.978-.536-1.475-.799l-.751-.393a53.938 53.938 0 00-2.129-1.064l-.623-.288-.566-.25-.51-.214-.174-.064-.302-.103c-.228-.071-.395-.107-.5-.107-.274 0-.69.111-1.25.332-.56.222-1.18.498-1.856.83-.677.333-1.367.687-2.07 1.065l-.791.437-.716.407-.33.191-.917.547V1.836c0-.56.166-1.006.498-1.338.295-.295.68-.46 1.155-.492L3.896 0h12.188zm0 1.2H3.896c-.255 0-.394.052-.489.147-.079.079-.128.188-.142.37l-.004.119-.001 16.071.987-.546a64.31 64.31 0 012.11-1.085 27.004 27.004 0 011.942-.869c.69-.272 1.23-.416 1.691-.416.284 0 .6.071 1.03.218l.398.144.258.106.559.241c.098.044.198.088.3.135l.641.296c.535.251 1.106.533 1.71.845l.46.24c.255.131.509.264.76.397l.633.339V1.836c0-.213-.035-.345-.102-.438l-.044-.051c-.078-.078-.192-.128-.384-.143l-.125-.004z" fill-rule="nonzero"/>
  </symbol>
  <symbol xmlns="http://www.w3.org/2000/svg" viewBox="0 0 20 20" id="Search_Active">
    <path d="M8.702.036a8.65 8.65 0 016.769 14.036l4.183 4.184a1 1 0 01-1.414 1.415l-4.188-4.188A8.65 8.65 0 118.702.036zm0 2a6.65 6.65 0 100 13.3 6.65 6.65 0 000-13.3z" fill-rule="nonzero"/>
  </symbol>
  <symbol xmlns="http://www.w3.org/2000/svg" viewBox="0 0 20 20" id="Search_Inactive">
    <path d="M8.723.069a8.65 8.65 0 016.531 14.32l.02.015 4.506 4.507a.6.6 0 01-.849.848l-4.506-4.506-.014-.018A8.65 8.65 0 118.723.069zm0 1.2a7.45 7.45 0 100 14.899 7.45 7.45 0 000-14.9z" fill-rule="nonzero"/>
  </symbol>
  <symbol xmlns="http://www.w3.org/2000/svg" viewBox="0 0 20 20" id="Settings">
    <path d="M10 0a8.903 8.903 0 012.132.233.7.7 0 01.526.521l.016.099.226 1.621c.081.024.16.055.237.094l.11.062 1.319-1a.758.758 0 01.851-.037l.014.004.063.036.11.072.152.11.193.147.228.187.261.226.142.128.304.287.161.158c.11.11.212.216.308.317l.266.29.118.135.206.245.167.211.129.173.09.132.054.087.018.038c.143.232.15.52.024.755l-.062.097-1 1.318c.046.072.084.148.115.227l.041.121 1.628.232a.7.7 0 01.62.542c.163.699.24 1.415.232 2.132a8.903 8.903 0 01-.226 2.126.7.7 0 01-.521.526l-.099.016-1.628.232a1.376 1.376 0 01-.093.237l-.063.11 1 1.319a.758.758 0 01.091.75l-.07.14-.055.087-.15.213-.148.193-.186.228-.226.261-.415.446-.32.32-.304.287-.403.354-.228.187-.193.147-.213.15-.087.054-.039.018a.758.758 0 01-.754.024l-.097-.062-1.318-1a1.376 1.376 0 01-.228.115l-.12.041-.232 1.628a.7.7 0 01-.542.62A8.903 8.903 0 0110 20a8.903 8.903 0 01-2.118-.226.7.7 0 01-.526-.521l-.016-.099-.2-1.628a1.62 1.62 0 01-.263-.093l-.125-.063-1.318 1a.758.758 0 01-.75.091l-.14-.07-.087-.054-.213-.15-.193-.148-.228-.187-.261-.226-.142-.128-.304-.287-.32-.32-.287-.304-.354-.403-.187-.228-.147-.193-.15-.213-.055-.087-.017-.038a.758.758 0 01-.024-.755l.062-.097 1-1.318a1.376 1.376 0 01-.115-.228l-.041-.12-1.628-.232a.7.7 0 01-.62-.542A8.903 8.903 0 010 10a8.903 8.903 0 01.226-2.118.7.7 0 01.521-.526l.099-.016 1.628-.2a1.62 1.62 0 01.092-.263l.064-.125-1-1.318a.758.758 0 01-.091-.75l.07-.14.054-.087.15-.213.148-.193.187-.228.108-.127.246-.276.287-.304.32-.32.304-.287.403-.354.228-.187.193-.147.213-.15.112-.068.013-.004a.758.758 0 01.755-.024l.097.062 1.318 1c.072-.046.148-.084.228-.115l.12-.042.232-1.627a.7.7 0 01.542-.62A8.903 8.903 0 0110 0zm.387 1.205l-.372-.004h-.03a7.689 7.689 0 00-1.114.067l-.401.065-.297 2.084-.744.216-.045.02-.702.44-1.728-1.31-.12.092c-.305.237-.66.55-1.037.928-.302.302-.563.59-.777.848l-.243.309 1.285 1.694-.385.686-.024.049-.017.051-.204.792-2.105.257-.005.025a7.75 7.75 0 00-.117 1.116l-.004.385a7.69 7.69 0 00.067 1.114l.064.4 2.085.298.224.767.453.724-1.311 1.727.092.12c.237.306.55.66.928 1.038.302.302.59.563.849.777l.241.192.068.05 1.693-1.284.686.385.049.024.051.017.792.204.257 2.104.025.006a7.75 7.75 0 001.116.117l.385.004c.372.005.744-.018 1.114-.067l.4-.065.298-2.084.767-.225.724-.452 1.727 1.31.12-.09c.306-.238.66-.551 1.038-.93.378-.377.69-.731.928-1.036l.091-.122-1.31-1.726.452-.724.225-.767 2.082-.296.007-.032c.066-.366.105-.738.118-1.121l.003-.387a7.7 7.7 0 00-.126-1.483l-.007-.032-2.083-.297-.225-.767-.452-.724 1.31-1.728-.09-.12c-.238-.305-.551-.66-.93-1.037a12.23 12.23 0 00-.848-.777l-.241-.192-.069-.051-1.726 1.31-.702-.44-.045-.02-.747-.217-.288-2.078-.035-.006a7.703 7.703 0 00-1.108-.121zm1.144 5.1A4 4 0 0114 10a3.963 3.963 0 01-4 4 4 4 0 111.53-7.695zM8.02 8.02A2.8 2.8 0 0010 12.8a2.774 2.774 0 002.8-2.8 2.8 2.8 0 00-4.78-1.98z" fill-rule="nonzero"/>
  </symbol>
  <symbol xmlns="http://www.w3.org/2000/svg" viewBox="0 0 20 20" id="Share">
    <path d="M16.35.9a3.1 3.1 0 11-2.385 5.08l.048.055-7.452 3.052.032.105c.053.195.087.397.1.602L6.7 10c0 .367-.064.725-.187 1.062l.03-.092 7.43 3.041.081-.094a3.092 3.092 0 012.092-1.01l.204-.007a3.1 3.1 0 11-2.926 2.073l-.005.015-.023.075-7.443-3.048-.08.093a3.091 3.091 0 01-2.072.986L3.6 13.1a3.1 3.1 0 112.442-5.01l-.05-.06 7.422-3.036-.038-.117a3.09 3.09 0 01-.118-.653L13.25 4a3.1 3.1 0 013.1-3.1zm0 13.2a1.9 1.9 0 100 3.8 1.9 1.9 0 000-3.8zM3.6 8.1a1.9 1.9 0 100 3.8 1.9 1.9 0 000-3.8zm12.75-6a1.9 1.9 0 100 3.8 1.9 1.9 0 000-3.8z" fill-rule="nonzero"/>
  </symbol>
  <symbol xmlns="http://www.w3.org/2000/svg" viewBox="0 0 20 20" id="Share_iOS">
    <path d="M5.287 7.8v1.198H3.6v9.801h12.8V8.998L14.712 9V7.8H17.6V20H2.4V7.8h2.887zM10 0l4.493 4.493-.847.845-3.047-3.046v11.904H9.4L9.399 2.293 6.352 5.338l-.845-.845L10 0z" fill-rule="nonzero"/>
  </symbol>
  <symbol xmlns="http://www.w3.org/2000/svg" viewBox="0 0 20 20" id="Success">
    <path d="M10 0c5.523 0 10 4.477 10 10s-4.477 10-10 10S0 15.523 0 10 4.477 0 10 0zm0 1a9 9 0 100 18 9 9 0 000-18zm5.74 4.525l.708.707L7.74 14.94l-.228-.228-.217.217-4.242-4.241.707-.707 3.762 3.761 8.218-8.217z" fill-rule="nonzero"/>
  </symbol>
  <symbol xmlns="http://www.w3.org/2000/svg" viewBox="0 0 20 20" id="TV">
    <path d="M16.504 18.025a.546.546 0 01.156.398.58.58 0 01-.156.408.51.51 0 01-.39.169H3.886a.51.51 0 01-.39-.17.58.58 0 01-.157-.407c0-.16.052-.292.156-.398a.525.525 0 01.39-.16h12.227c.157 0 .287.053.39.16zm-15.39-2.429h17.773V3.135H1.113v12.461zM18.886 2c.312 0 .576.113.79.338.216.226.323.491.323.797v12.461c0 .319-.107.587-.322.806a1.065 1.065 0 01-.791.329H1.113c-.312 0-.576-.11-.79-.329A1.107 1.107 0 010 15.596V3.135c0-.306.107-.571.322-.797A1.05 1.05 0 011.113 2h17.774z" fill-rule="nonzero"/>
  </symbol>
  <symbol xmlns="http://www.w3.org/2000/svg" viewBox="0 0 20 20" id="TV_Program">
    <path d="M16.504 18.025a.546.546 0 01.156.398.58.58 0 01-.156.408.51.51 0 01-.39.169H3.886a.51.51 0 01-.39-.17.58.58 0 01-.157-.407c0-.16.052-.292.156-.398a.525.525 0 01.39-.16h12.227a.53.53 0 01.325.102l.066.058zm-15.39-2.429h17.773V3.135H1.113v12.461zM18.886 2c.312 0 .576.113.79.338.216.226.323.491.323.797v12.461c0 .319-.107.587-.322.806a1.065 1.065 0 01-.791.329H1.113c-.312 0-.576-.11-.79-.329A1.107 1.107 0 010 15.596V3.135c0-.306.107-.571.322-.797A1.05 1.05 0 011.113 2h17.774zM16.5 11.83h-10v1h10v-1zm-12 0h-1v1h1v-1zm12-3h-10v1h10v-1zm-12 0h-1v1h1v-1zm12-3h-10v1h10v-1zm-12 0h-1v1h1v-1z" fill-rule="nonzero"/>
  </symbol>
  <symbol xmlns="http://www.w3.org/2000/svg" viewBox="0 0 20 20" id="Trash">
    <path d="M13.001 0v2.5H19v1h-2.5V20h-13V3.5H1v-1h5.998V0h6.003zM15.5 3.5h-11V19h11V3.5zm-8 2V17h-1V5.5h1zm3 0V17h-1V5.5h1zm3 0V17h-1V5.5h1zM12.001 1H7.998v1.5h4.003V1z" fill-rule="nonzero"/>
  </symbol>
  <symbol xmlns="http://www.w3.org/2000/svg" viewBox="0 0 20 20" id="Twitter">
    <path d="M6.275 18.131c7.552 0 11.682-6.258 11.682-11.681 0-.18 0-.359-.009-.529A8.41 8.41 0 0020 3.792a8.31 8.31 0 01-2.358.647 4.103 4.103 0 001.805-2.272 8.318 8.318 0 01-2.605.996 4.087 4.087 0 00-2.997-1.294 4.106 4.106 0 00-4.104 4.104c0 .324.034.639.111.937a11.646 11.646 0 01-8.463-4.292 4.12 4.12 0 00-.553 2.06c0 1.423.724 2.683 1.831 3.414a4.024 4.024 0 01-1.858-.51v.051a4.11 4.11 0 003.295 4.028 4.082 4.082 0 01-1.856.068 4.098 4.098 0 003.831 2.852A8.256 8.256 0 010 16.274a11.432 11.432 0 006.275 1.857" fill-rule="nonzero"/>
  </symbol>
  <symbol xmlns="http://www.w3.org/2000/svg" viewBox="0 0 20 20" id="Video">
    <path d="M14 3v4.818L19 6h1v8h-1l-5-1.818v4.817H0V3.001h14zM4.24 7v6l5-3-5-3z" fill-rule="nonzero"/>
  </symbol>
  <symbol xmlns="http://www.w3.org/2000/svg" viewBox="0 0 20 20" id="Video_Active">
    <path d="M18 4.9a2 2 0 012 2v9.5a2 2 0 01-2 2H2a2 2 0 01-2-2V6.9a2 2 0 012-2h16zM8.5 9.459a.5.5 0 00-.5.5v3.382a.5.5 0 00.724.447l3.382-1.69a.5.5 0 000-.895L8.724 9.512a.5.5 0 00-.224-.053zM16.4 2.7a.6.6 0 010 1.2H3.6a.6.6 0 110-1.2h12.8zM14.15.5a.6.6 0 010 1.2h-8.3a.6.6 0 110-1.2h8.3z" fill-rule="nonzero"/>
  </symbol>
  <symbol xmlns="http://www.w3.org/2000/svg" viewBox="0 0 20 20" id="Video_Inactive">
    <path d="M18 4.9a2 2 0 012 2v9.5a2 2 0 01-2 2H2a2 2 0 01-2-2V6.9a2 2 0 012-2h16zm0 1.2H2a.8.8 0 00-.794.7l-.006.1v9.5a.8.8 0 00.7.794l.1.006h16a.8.8 0 00.794-.7l.006-.1V6.9a.8.8 0 00-.7-.794L18 6.1zM8.5 9.459a.5.5 0 01.224.053l3.382 1.69a.5.5 0 010 .895l-3.382 1.691A.5.5 0 018 13.341V9.959a.5.5 0 01.5-.5zM16.4 2.7a.6.6 0 010 1.2H3.6a.6.6 0 110-1.2h12.8zM14.15.5a.6.6 0 010 1.2h-8.3a.6.6 0 110-1.2h8.3z" fill-rule="nonzero"/>
  </symbol>
  <symbol xmlns="http://www.w3.org/2000/svg" viewBox="0 0 20 20" id="Volume_Off">
    <path d="M10.257 18.18V1.834L4.488 6.448.092 6.45v7.116h4.395l5.77 4.615zM9.24 3.95v12.114l-4.396-3.516H1.108V7.464h3.736L9.24 3.95zm9.53 2.793l.72.72-2.545 2.544 2.544 2.545-.718.719-2.545-2.545-2.545 2.545-.719-.72 2.545-2.544-2.545-2.545.719-.719 2.545 2.545 2.545-2.545z" fill-rule="nonzero"/>
  </symbol>
  <symbol xmlns="http://www.w3.org/2000/svg" viewBox="0 0 20 20" id="Volume_On">
    <path d="M10.257 18.18V1.834l-5.77 4.615H.092v7.116l4.395-.001 5.77 4.616zm6.59-15.719c4.093 4.093 4.166 10.684.22 14.866l-.22.226-.718-.719c3.7-3.7 3.768-9.658.205-13.442l-.205-.212.719-.719zM9.24 3.949v12.115l-4.396-3.516H1.108V7.465h3.736L9.24 3.95zm4.37 2.1a5.59 5.59 0 01.176 7.72l-.177.186-.718-.72a4.574 4.574 0 00.162-6.296l-.162-.171.718-.719z" fill-rule="nonzero"/>
  </symbol>
  <symbol xmlns="http://www.w3.org/2000/svg" viewBox="0 0 20 20" id="Warning">
    <path d="M10 1.141L20 18.86H0L10 1.14zm0 2.033L1.712 17.858h16.575L10 3.174zM10 15a.748.748 0 110 1.497A.748.748 0 0110 15zm.5-7.996v6.503h-1V7.004h1z" fill-rule="nonzero"/>
  </symbol>
  <symbol xmlns="http://www.w3.org/2000/svg" viewBox="0 0 20 20" id="Youtube">
    <path d="M19.582 5.155a2.515 2.515 0 00-1.768-1.78c-1.56-.42-7.814-.42-7.814-.42s-6.254 0-7.814.421a2.515 2.515 0 00-1.768 1.78C0 6.725 0 10 0 10s0 3.275.418 4.845c.23.866.908 1.548 1.768 1.78 1.56.42 7.814.42 7.814.42s6.254 0 7.814-.421a2.513 2.513 0 001.768-1.78C20 13.275 20 10 20 10s0-3.275-.418-4.845zM7.955 12.974V7.026L13.182 10l-5.227 2.974z" fill-rule="nonzero"/>
  </symbol>
  <symbol xmlns="http://www.w3.org/2000/svg" id="Air_Pollution_Arrow">
    <path d="M0.81961 0.395874L0.0771484 1.13834L3.93843 4.99997L0.0771484 8.86161L0.81961 9.60407L5.42371 4.99997L0.81961 0.395874Z"/>
  </symbol>
  <symbol width="16" height="15" viewBox="0 0 16 15" xmlns="http://www.w3.org/2000/svg" id="Ap_Search_Icon">
    <path  d="M13.8977 6.53881C13.8977 2.95608 10.7997 0.051712 6.97816 0.051712C3.15659 0.051712 0.0585938 2.95608 0.0585938 6.53881C0.0585938 10.1215 3.15659 13.0259 6.97816 13.0259C8.72026 13.0259 10.312 12.4224 11.5284 11.4261L11.5398 11.4396L15.145 14.8195C15.3325 14.9953 15.6364 14.9953 15.8238 14.8195C16.0113 14.6438 16.0113 14.3589 15.8238 14.1831L12.2186 10.8032L12.2032 10.7919C13.2588 9.6531 13.8977 8.16591 13.8977 6.53881ZM1.01859 6.53881C1.01859 3.45314 3.68678 0.951712 6.97816 0.951712C10.2695 0.951712 12.9377 3.45314 12.9377 6.53881C12.9377 9.62448 10.2695 12.1259 6.97816 12.1259C3.68678 12.1259 1.01859 9.62448 1.01859 6.53881Z" fill="#A8A8A8"/>
  </symbol>
  <symbol width="26" height="26" viewBox="0 0 20 26" xmlns="http://www.w3.org/2000/svg" id="State">
    <path fill-rule="evenodd" clip-rule="evenodd" d="M0 9.75V10.2256C0 12.5475 0.8105 14.8003 2.2982 16.6134L10 26L17.7018 16.6134C19.1895 14.8003 20 12.5475 20 10.2256V9.75C20 4.36522 15.5228 0 10 0C4.47715 0 0 4.36522 0 9.75Z" fill="#A8A8A8"/>
  </symbol>
  <symbol width="26" height="24" viewBox="0 0 26 24" xmlns="http://www.w3.org/2000/svg" id="Citizen">
    <path d="M22.4545 22.7785C22.4545 23.1025 22.33 23.4132 22.1084 23.6422C21.8868 23.8713 21.5862 24 21.2727 24H4.72727C4.41384 24 4.11324 23.8713 3.8916 23.6422C3.66997 23.4132 3.54545 23.1025 3.54545 22.7785V11.7852H0L12.2046 0.31802C12.4222 0.113396 12.7058 0 13 0C13.2942 0 13.5778 0.113396 13.7954 0.31802L26 11.7852H22.4545V22.7785Z" fill="#A8A8A8"/>
  </symbol>
  <symbol width="25" height="26" viewBox="0 0 25 26" xmlns="http://www.w3.org/2000/svg" id="State_And_Citizen">
    <path d="M11.2273 11.3893C11.2273 11.5512 11.165 11.7066 11.0542 11.8211C10.9434 11.9357 10.7931 12 10.6364 12H2.36364C2.20692 12 2.05662 11.9357 1.9458 11.8211C1.83498 11.7066 1.77273 11.5512 1.77273 11.3893V5.89262H0L6.10232 0.15901C6.21111 0.056698 6.35291 0 6.5 0C6.64709 0 6.78889 0.056698 6.89768 0.15901L13 5.89262H11.2273V11.3893Z" fill="#A8A8A8"/>
    <path fill-rule="evenodd" clip-rule="evenodd" d="M16 17.875V18.1128C16 19.2738 16.3647 20.4002 17.0342 21.3067L20.5 26L23.9658 21.3067C24.6353 20.4002 25 19.2738 25 18.1128V17.875C25 15.1826 22.9853 13 20.5 13C18.0147 13 16 15.1826 16 17.875Z" fill="#A8A8A8"/>
    <path d="M7 18.8553L19.8553 6.00003L20.2088 6.35358L7.35355 19.2088L7 18.8553Z" fill="#A8A8A8"/>
  </symbol>
</svg>
